<?xml version="1.0" standalone="no"?>
<!DOCTYPE svg PUBLIC "-//W3C//DTD SVG 1.1//EN" "http://www.w3.org/Graphics/SVG/1.1/DTD/svg11.dtd" >
<svg>
<metadata>
Created by FontForge 20090622 at Tue Sep 27 12:32:26 2016
 By deploy user
Copyright 1989-2004 Bitstream Inc. Localization: copyright 2000-2004 Kuba Tatarkiewicz. 
</metadata>
<defs>
<font id="FuturaEU-Bold" horiz-adv-x="312" >
  <font-face 
    font-family="FuturaEU"
    font-weight="700"
    font-stretch="normal"
    units-per-em="1000"
    panose-1="0 0 7 0 0 0 0 0 0 0"
    ascent="800"
    descent="-200"
    x-height="493"
    cap-height="715"
    bbox="-167 -345 1303 978"
    underline-thickness="133"
    underline-position="18"
    unicode-range="U+0020-U+F6C2"
  />
<missing-glyph horiz-adv-x="313" 
 />
    <glyph glyph-name="fi" unicode="fi" horiz-adv-x="657" 
d="M597 647q0 -40 -28.5 -68.5t-67.5 -28.5q-40 0 -68 29t-28 68t28 67.5t68 28.5t68 -28t28 -68zM588 0h-174v493h174v-493zM339 370h-87v-370h-171v370h-74v123h74v101q0 173 187 173q28 0 71 -9v-133q-24 9 -40 9q-47 0 -47 -62v-79h87v-123z" />
    <glyph glyph-name="fl" unicode="fl" horiz-adv-x="657" 
d="M588 0h-174v757h174v-757zM339 370h-87v-370h-171v370h-74v123h74v101q0 173 187 173q28 0 71 -9v-133q-24 9 -40 9q-47 0 -47 -62v-79h87v-123z" />
    <glyph glyph-name=".notdef" horiz-adv-x="313" 
 />
    <glyph glyph-name=".null" horiz-adv-x="313" 
 />
    <glyph glyph-name="nonmarkingreturn" horiz-adv-x="313" 
 />
    <glyph glyph-name="space" unicode=" " horiz-adv-x="313" 
 />
    <glyph glyph-name="exclam" unicode="!" horiz-adv-x="343" 
d="M262 238h-181v510h181v-510zM270 80q0 -42 -29 -70.5t-70 -28.5t-69.5 29t-28.5 70t28 70t70 29q41 0 70 -29t29 -70z" />
    <glyph glyph-name="quotedbl" unicode="&#x22;" horiz-adv-x="348" 
d="M312 428h-109v274h109v-274zM144 428h-107v274h107v-274z" />
    <glyph glyph-name="numbersign" unicode="#" horiz-adv-x="769" 
d="M758 523l-42 -112h-131l-39 -112h135l-41 -113h-134l-69 -192h-122l68 192h-115l-69 -192h-122l68 192h-134l42 113h132l40 112h-138l42 112h136l69 193h122l-68 -193h115l69 193h122l-68 -193h132zM465 411h-120l-40 -113h120z" />
    <glyph glyph-name="dollar" unicode="$" horiz-adv-x="625" 
d="M556 234q0 -101 -61.5 -168.5t-164.5 -77.5v-119h-63v117q-134 3 -239 103l88 143q84 -97 174 -97q38 0 61.5 21.5t23.5 52.5q0 39 -28 59q-22 16 -85 33q-104 28 -149 70q-49 47 -49 129q0 97 60.5 157.5t170.5 70.5v68h63v-67q88 -10 165 -62l-62 -139q-66 56 -137 56
q-35 0 -56.5 -16.5t-21.5 -42.5q0 -34 32 -52q18 -10 82 -27q102 -28 145 -70q51 -49 51 -142z" />
    <glyph glyph-name="percent" unicode="%" horiz-adv-x="904" 
d="M888 179q0 -90 -49.5 -144t-133.5 -54t-134 54t-50 144t50 143.5t134 53.5t133.5 -53.5t49.5 -143.5zM713 722l-432 -741h-89l429 741h92zM392 525q0 -90 -50 -143.5t-134 -53.5t-134 53.5t-50 143.5t50 143.5t134 53.5t134 -53.5t50 -143.5zM767 179q0 122 -62 122
t-62 -122q0 -123 62 -123t62 123zM270 525q0 122 -62 122t-62 -122t62 -122t62 122z" />
    <glyph glyph-name="ampersand" unicode="&#x26;" horiz-adv-x="806" 
d="M785 0h-216l-63 73q-99 -92 -234 -92q-96 0 -156 56.5t-60 142.5q0 69 40 119.5t126 96.5q-66 77 -66 147t56 119t142 49q99 0 156 -49q54 -47 54 -127q0 -103 -122 -180l84 -88q54 45 100 99l102 -105q-48 -59 -98 -101zM431 538q0 26 -16.5 42t-44.5 16q-66 0 -66 -63
q0 -28 26 -60l28 -34l23 19q50 41 50 80zM408 170l-115 126q-65 -57 -65 -103q0 -31 21.5 -52.5t54.5 -21.5q47 0 104 51z" />
    <glyph glyph-name="quotesingle" unicode="'" horiz-adv-x="181" 
d="M144 428h-107v274h107v-274z" />
    <glyph glyph-name="parenleft" unicode="(" horiz-adv-x="363" 
d="M338 664q-141 -170 -141 -411q0 -235 137 -408l-107 -74q-176 213 -176 482q0 270 176 483z" />
    <glyph glyph-name="parenright" unicode=")" horiz-adv-x="363" 
d="M312 253q0 -271 -175 -482l-107 74q137 173 137 408q0 240 -142 411l112 72q175 -211 175 -483z" />
    <glyph glyph-name="asterisk" unicode="*" horiz-adv-x="521" 
d="M443 486l-50 -86l-100 78l17 -126h-99l16 126l-99 -78l-50 86l119 48l-119 47l50 86l100 -77l-18 125h100l-17 -125l100 78l49 -87l-117 -47z" />
    <glyph glyph-name="plus" unicode="+" horiz-adv-x="833" 
d="M709 242h-234v-242h-116v242h-235v113h235v241h116v-241h234v-113z" />
    <glyph glyph-name="comma" unicode="," 
d="M299 162l-151 -306h-135l104 306h182z" />
    <glyph glyph-name="hyphen" unicode="-" horiz-adv-x="456" 
d="M394 166h-332v159h332v-159z" />
    <glyph glyph-name="period" unicode="." 
d="M255 80q0 -42 -29 -70.5t-70 -28.5t-69.5 29t-28.5 70t28 70t70 29q41 0 70 -29t29 -70z" />
    <glyph glyph-name="slash" unicode="/" horiz-adv-x="458" 
d="M458 731l-349 -824h-109l350 824h108z" />
    <glyph glyph-name="zero" unicode="0" horiz-adv-x="625" 
d="M583 345q0 -171 -72.5 -267.5t-197.5 -96.5t-198 98t-73 273q0 174 73 272t198 98q127 0 198.5 -98t71.5 -279zM403 352q0 225 -90 225q-49 0 -70 -54.5t-21 -170.5q0 -225 91 -225q90 0 90 225z" />
    <glyph glyph-name="one" unicode="1" horiz-adv-x="625" 
d="M418 0h-178v546h-153l84 162h247v-708z" />
    <glyph glyph-name="two" unicode="2" horiz-adv-x="625" 
d="M572 496q0 -95 -97 -202l-129 -142h219v-152h-546l321 380q57 67 57 115q0 38 -23.5 61.5t-62.5 23.5q-95 0 -95 -114v-9h-172v5q0 121 71.5 191t193.5 70t194 -64q69 -63 69 -163z" />
    <glyph glyph-name="three" unicode="3" horiz-adv-x="625" 
d="M579 215q0 -104 -74 -169t-193 -65q-124 0 -197.5 66.5t-73.5 179.5v10h181v-12q0 -95 87 -95q93 0 93 90q0 96 -106 96q-14 0 -22 -1v115h10q102 0 102 84q0 33 -22.5 53.5t-56.5 20.5q-79 0 -79 -77h-173q2 100 70 155.5t191 55.5q111 0 173 -50t62 -134
q0 -113 -113 -147q67 -11 104 -57.5t37 -118.5z" />
    <glyph glyph-name="four" unicode="4" horiz-adv-x="625" 
d="M594 160h-79v-160h-163v160h-325v141l266 410h222v-410h79v-141zM357 590q-18 -42 -49 -89l-131 -200h175v208q0 53 5 81z" />
    <glyph glyph-name="five" unicode="5" horiz-adv-x="625" 
d="M572 238q0 -118 -78 -187.5t-215 -69.5q-134 0 -220 57l13 173l15 -3q56 -85 165 -85q68 0 105 33t37 91q0 56 -40 92.5t-104 36.5q-85 0 -140 -58l-24 14l59 376h389v-146h-271l-14 -92q52 10 88 10q109 0 172 -65t63 -177z" />
    <glyph glyph-name="six" unicode="6" horiz-adv-x="625" 
d="M589 241q0 -116 -74 -188t-200 -72t-198.5 71t-72.5 188q0 75 37 156q25 55 91 157l100 155h199l-167 -252q39 11 75 11q89 0 149.5 -63.5t60.5 -162.5zM421 232q0 51 -29 80.5t-79 29.5t-79 -29.5t-29 -80.5t29 -80t79 -29t79 29t29 80z" />
    <glyph glyph-name="seven" unicode="7" horiz-adv-x="625" 
d="M608 674l-311 -674h-202l269 548h-302v160h546v-34z" />
    <glyph glyph-name="eight" unicode="8" horiz-adv-x="625" 
d="M585 197q0 -100 -70 -157q-73 -59 -203 -59t-201 58t-71 158q0 75 38.5 123.5t108.5 61.5q-118 27 -118 147q0 90 63.5 141.5t179.5 51.5t180 -51.5t64 -141.5q0 -120 -118 -147q70 -13 108.5 -61.5t38.5 -123.5zM397 522q0 81 -85 81q-39 0 -61.5 -21.5t-22.5 -59.5
t23 -60t61 -22q39 0 62 22t23 60zM410 219q0 44 -26 69t-72 25t-72 -25t-26 -69t26.5 -69.5t71.5 -25.5q46 0 72 25.5t26 69.5z" />
    <glyph glyph-name="nine" unicode="9" horiz-adv-x="625" 
d="M586 464q0 -71 -35 -150q-27 -63 -93 -163l-99 -151h-199l167 248q-39 -11 -75 -11q-89 0 -149.5 63t-60.5 162q0 116 73.5 188.5t199.5 72.5t200 -72q71 -70 71 -187zM426 471q0 51 -29 80.5t-79 29.5t-79 -29.5t-29 -80.5t29 -80t79 -29t79 29t29 80z" />
    <glyph glyph-name="colon" unicode=":" horiz-adv-x="343" 
d="M270 390q0 -42 -29 -70.5t-70 -28.5t-69.5 29t-28.5 70t28 69.5t70 28.5q41 0 70 -28.5t29 -69.5zM270 80q0 -42 -29 -70.5t-70 -28.5t-69.5 29t-28.5 70t28 69.5t70 28.5q41 0 70 -28.5t29 -69.5z" />
    <glyph glyph-name="semicolon" unicode=";" horiz-adv-x="343" 
d="M316 390q0 -42 -28.5 -70.5t-69.5 -28.5t-70 29t-29 70t28.5 69.5t70.5 28.5q41 0 69.5 -28.5t28.5 -69.5zM312 162l-151 -306h-135l104 306h182z" />
    <glyph glyph-name="less" unicode="&#x3c;" horiz-adv-x="833" 
d="M704 4l-575 237v114l575 238v-124l-417 -171l417 -170v-124z" />
    <glyph glyph-name="equal" unicode="=" horiz-adv-x="833" 
d="M709 351h-585v113h585v-113zM709 133h-585v112h585v-112z" />
    <glyph glyph-name="greater" unicode="&#x3e;" horiz-adv-x="833" 
d="M704 241l-575 -237v124l417 170l-417 171v124l575 -238v-114z" />
    <glyph glyph-name="question" unicode="?" horiz-adv-x="605" 
d="M542 532q0 -81 -44 -133t-114 -53v-104h-168v202h52q113 0 113 87q0 34 -22.5 57t-54.5 23q-72 0 -75 -72h-167v4q0 93 68 150t182 57q104 0 167 -60.5t63 -157.5zM392 80q0 -42 -28.5 -70.5t-69.5 -28.5t-70 29t-29 70t28.5 70t70.5 29q41 0 69.5 -29t28.5 -70z" />
    <glyph glyph-name="at" unicode="@" horiz-adv-x="1000" 
d="M961 373q0 -167 -125 -267q-70 -56 -161 -56q-103 0 -108 78q-53 -77 -144 -77q-162 0 -162 168q0 119 69.5 198t170.5 79q75 0 112 -60l25 45h101l-75 -298q-2 -8 -2 -16q0 -29 31 -29q66 0 117 70t51 164q0 116 -87 190t-229 74q-146 0 -246 -71q-158 -112 -158 -308
q0 -148 99 -235.5t266 -87.5q164 0 291 91l47 -66q-151 -114 -338 -114q-191 0 -314 95q-152 117 -152 314q0 167 102 292q148 182 404 182q172 0 283 -87q132 -103 132 -268zM585 340q-9 76 -78 76q-50 0 -88.5 -59t-38.5 -140q0 -85 65 -85q40 0 71.5 28.5t43.5 77.5z" />
    <glyph glyph-name="A" unicode="A" horiz-adv-x="722" 
d="M730 0h-194l-36 128h-277l-37 -128h-194l247 715h244zM459 267l-73 236q-2 7 -24 96q-18 -72 -25 -96l-72 -236h194z" />
    <glyph glyph-name="B" unicode="B" horiz-adv-x="678" 
d="M637 204q0 -119 -93 -168q-44 -23 -113 -31q-49 -5 -153 -5h-202v715h217q154 0 211 -25q101 -45 101 -154q0 -61 -30.5 -96.5t-99.5 -54.5q77 -6 119.5 -54t42.5 -127zM422 500q0 49 -41 64q-23 9 -82 9h-42v-144h39q66 0 94 13q32 16 32 58zM452 221q0 49 -28.5 65
t-95.5 16h-71v-156h68q66 0 96.5 16.5t30.5 58.5z" />
    <glyph glyph-name="C" unicode="C" horiz-adv-x="628" 
d="M594 27q-93 -45 -185 -45q-158 0 -260.5 106.5t-102.5 268.5t102.5 268.5t260.5 106.5q92 0 185 -45v-213q-77 86 -165 86q-84 0 -136 -58t-52 -149q0 -84 52 -141.5t136 -57.5q88 0 165 86v-213z" />
    <glyph glyph-name="D" unicode="D" horiz-adv-x="766" 
d="M720 357q0 -192 -138 -290q-60 -43 -142 -57q-57 -10 -165 -10h-199v715h172q123 0 182 -9q88 -14 152 -59q138 -97 138 -290zM522 357q0 105 -54 151.5t-166 46.5h-33v-395h33q113 0 166.5 46.5t53.5 150.5z" />
    <glyph glyph-name="E" unicode="E" horiz-adv-x="567" 
d="M514 0h-438v715h438v-157h-248v-124h234v-153h-234v-121h248v-160z" />
    <glyph glyph-name="F" unicode="F" horiz-adv-x="544" 
d="M514 558h-248v-124h234v-153h-234v-281h-190v715h438v-157z" />
    <glyph glyph-name="G" unicode="G" horiz-adv-x="843" 
d="M800 370q0 -184 -98.5 -285.5t-273.5 -101.5q-170 0 -276 107.5t-106 266.5q0 162 108.5 268t273.5 106q210 0 322 -165l-169 -81q-60 82 -153 82q-86 0 -137 -58t-51 -160t50.5 -160.5t137.5 -58.5q75 0 124.5 37t57.5 96h-194v150h383q1 -15 1 -43z" />
    <glyph glyph-name="H" unicode="H" horiz-adv-x="802" 
d="M726 0h-195v291h-260v-291h-195v715h195v-278h260v278h195v-715z" />
    <glyph glyph-name="I" unicode="I" horiz-adv-x="359" 
d="M278 0h-197v715h197v-715z" />
    <glyph glyph-name="J" unicode="J" horiz-adv-x="479" 
d="M411 252q0 -116 -31 -171q-57 -100 -182 -100q-135 0 -210 114l119 108q9 -66 61 -66q33 0 43 47q6 32 6 138v393h194v-463z" />
    <glyph glyph-name="K" unicode="K" horiz-adv-x="725" 
d="M745 0h-243l-233 321v-321h-193v715h193v-325l226 325h227l-264 -349z" />
    <glyph glyph-name="L" unicode="L" horiz-adv-x="532" 
d="M513 0h-437v715h195v-548h242v-167z" />
    <glyph glyph-name="M" unicode="M" horiz-adv-x="925" 
d="M896 0h-182l-42 309q-9 68 -15 160q-7 -44 -33 -134l-97 -335h-130l-97 335q-11 36 -33 134q-5 -78 -16 -160l-42 -309h-181l110 715h193l108 -369q9 -27 23 -97q5 41 22 98l109 368h193z" />
    <glyph glyph-name="N" unicode="N" horiz-adv-x="852" 
d="M775 0h-187l-270 369q-18 25 -65 125q11 -88 11 -141v-353h-188v715h188l270 -368q17 -23 65 -126q-11 88 -11 141v353h187v-715z" />
    <glyph glyph-name="O" unicode="O" horiz-adv-x="856" 
d="M810 356q0 -157 -112 -266t-270 -109q-135 0 -243 86q-139 111 -139 289q0 156 112.5 265.5t269.5 109.5q158 0 270 -109t112 -266zM615 356q0 88 -53 149t-134 61t-134 -60.5t-53 -149.5q0 -90 51.5 -150t135.5 -60q82 0 134.5 60.5t52.5 149.5z" />
    <glyph glyph-name="P" unicode="P" horiz-adv-x="634" 
d="M611 472q0 -145 -99 -204q-54 -32 -171 -32h-82v-236h-183v715h218q83 0 121 -5q58 -8 96 -32q100 -64 100 -206zM422 478q0 49 -32 67q-28 16 -92 16h-39v-168h37q66 0 94 17q32 19 32 68z" />
    <glyph glyph-name="Q" unicode="Q" horiz-adv-x="856" 
d="M825 -84h-166l-76 100q-63 -33 -152 -33q-166 0 -275.5 108t-109.5 266q0 156 112 265t270 109t270 -109t112 -265q0 -165 -115 -268zM615 351q0 94 -53 155t-134 61q-80 0 -133.5 -60.5t-53.5 -150.5q0 -91 53 -151.5t135 -60.5q22 0 49 11l-101 130h169l37 -49
q32 48 32 115z" />
    <glyph glyph-name="R" unicode="R" horiz-adv-x="641" 
d="M643 0h-220l-164 280v-280h-183v715h216q92 0 132 -6q63 -10 104 -42q80 -62 80 -175q0 -170 -160 -204zM416 466q0 55 -28 77t-90 22h-39v-188h36q121 0 121 89z" />
    <glyph glyph-name="S" unicode="S" horiz-adv-x="581" 
d="M548 233q0 -113 -74.5 -182.5t-199.5 -69.5q-143 0 -254 105l88 145q86 -98 170 -98q40 0 64.5 21t24.5 53q0 40 -30 61q-23 17 -90 34q-100 26 -144 70q-48 46 -48 128q0 101 68 166.5t179 65.5q120 0 212 -64l-61 -140q-67 57 -137 57q-35 0 -57 -17t-22 -43
q0 -34 33 -52q18 -10 81 -27q103 -27 146 -70q51 -49 51 -143z" />
    <glyph glyph-name="T" unicode="T" horiz-adv-x="553" 
d="M534 546h-160v-546h-195v546h-159v169h514v-169z" />
    <glyph glyph-name="U" unicode="U" horiz-adv-x="780" 
d="M708 290q0 -163 -74.5 -236t-243.5 -73q-180 0 -256 87q-39 45 -52 113q-10 50 -10 148v386h194v-388q0 -100 24 -139q27 -43 100 -43q83 0 107 56q17 41 17 171v343h194v-425z" />
    <glyph glyph-name="V" unicode="V" horiz-adv-x="711" 
d="M729 715l-300 -715h-148l-300 715h207l143 -400q5 -14 24 -96q17 74 25 96l142 400h207z" />
    <glyph glyph-name="W" unicode="W" horiz-adv-x="970" 
d="M979 715l-202 -715h-181l-88 305q-6 21 -24 96q-8 -34 -24 -96l-87 -305h-181l-202 715h197l82 -342q13 -54 22 -107q8 43 25 107l90 342h157l90 -340q14 -52 21 -94l2 -11l22 105l84 340h197z" />
    <glyph glyph-name="X" unicode="X" horiz-adv-x="706" 
d="M720 0h-221l-121 212q-18 31 -25 59q-8 -32 -24 -59l-122 -212h-221l265 375l-240 340h232l86 -166q9 -15 24 -59q5 20 25 59l86 166h231l-239 -344z" />
    <glyph glyph-name="Y" unicode="Y" horiz-adv-x="597" 
d="M641 715l-250 -389v-326h-188v326l-251 389h225l96 -184q9 -14 24 -61q5 22 25 61l95 184h224z" />
    <glyph glyph-name="Z" unicode="Z" horiz-adv-x="677" 
d="M675 715l-360 -559h319v-156h-632l361 560h-290v155h602z" />
    <glyph glyph-name="bracketleft" unicode="[" horiz-adv-x="363" 
d="M336 -225h-248v956h248v-118h-107v-720h107v-118z" />
    <glyph glyph-name="backslash" unicode="\" horiz-adv-x="458" 
d="M458 -93h-108l-350 824h109z" />
    <glyph glyph-name="bracketright" unicode="]" horiz-adv-x="363" 
d="M275 -225h-247v118h106v720h-106v118h247v-956z" />
    <glyph glyph-name="asciicircum" unicode="^" horiz-adv-x="1000" 
d="M797 439h-129l-168 167l-169 -167h-129l227 275h141z" />
    <glyph glyph-name="underscore" unicode="_" horiz-adv-x="500" 
d="M500 -236h-500v117h500v-117z" />
    <glyph glyph-name="grave" unicode="`" horiz-adv-x="500" 
d="M335 560h-75l-151 171h137z" />
    <glyph glyph-name="a" unicode="a" horiz-adv-x="660" 
d="M593 1h-160v79q-66 -99 -177 -99q-98 0 -157.5 72t-59.5 193q0 120 61.5 191.5t166.5 71.5q109 0 165 -97v81h161v-492zM440 247q0 57 -31 91t-84 34t-83.5 -34t-30.5 -91q0 -58 30.5 -91t83.5 -33t84 33t31 91z" />
    <glyph glyph-name="b" unicode="b" horiz-adv-x="660" 
d="M619 246q0 -123 -62 -194t-165 -71q-101 0 -167 99v-80h-160v757h166v-258q0 -53 -5 -88q33 55 71.5 76.5t100.5 21.5q98 0 159.5 -72t61.5 -191zM446 246q0 57 -31 90.5t-83 33.5t-82.5 -33.5t-30.5 -90.5q0 -58 30 -91t83 -33t83.5 33t30.5 91z" />
    <glyph glyph-name="c" unicode="c" horiz-adv-x="461" 
d="M418 15q-62 -34 -127 -34q-112 0 -182 71q-73 73 -73 194q0 116 72 189.5t185 73.5q72 0 125 -31v-147q-49 43 -98 43q-51 0 -82 -34t-31 -93q0 -56 31.5 -90t85.5 -34q52 0 94 43v-151z" />
    <glyph glyph-name="d" unicode="d" horiz-adv-x="659" 
d="M595 0h-160v80q-66 -99 -167 -99q-103 0 -165 71t-62 194q0 119 61.5 191t159.5 72q62 0 100.5 -21.5t71.5 -76.5q-6 42 -6 88v258h167v-757zM441 246q0 57 -31 90.5t-83 33.5t-82.5 -33.5t-30.5 -90.5q0 -58 30 -91t83 -33t83.5 33t30.5 91z" />
    <glyph glyph-name="e" unicode="e" horiz-adv-x="611" 
d="M575 212h-375q2 -119 111 -119q79 0 108 59l131 -53q-49 -118 -229 -118q-132 0 -210 74q-75 71 -75 186q0 114 77 191t198 77t192.5 -77t71.5 -212v-8zM404 310q-4 42 -32 67.5t-67 25.5q-86 0 -101 -93h200z" />
    <glyph glyph-name="f" unicode="f" horiz-adv-x="351" 
d="M339 370h-87v-370h-171v370h-74v123h74v101q0 173 187 173q28 0 71 -9v-133q-24 9 -40 9q-47 0 -47 -62v-79h87v-123z" />
    <glyph glyph-name="g" unicode="g" horiz-adv-x="660" 
d="M593 1q0 -219 -279 -219q-117 0 -181.5 43.5t-68.5 120.5h180q8 -49 83 -49q64 0 84 36q15 27 15 105v45q-55 -92 -171 -92q-97 0 -156.5 70t-59.5 189q0 118 61.5 188.5t166.5 70.5q109 0 165 -95v79h161v-492zM440 248q0 57 -30.5 89.5t-84.5 32.5t-85 -33t-31 -89
t31 -89t85 -33t84.5 32.5t30.5 89.5z" />
    <glyph glyph-name="h" unicode="h" horiz-adv-x="653" 
d="M594 0h-174v264q0 113 -81 113q-57 0 -80.5 -41.5t-23.5 -128.5v-207h-171v757h171v-266q0 -47 -6 -89q65 107 183 107q99 0 146 -60q36 -46 36 -167v-282z" />
    <glyph glyph-name="i" unicode="i" 
d="M252 647q0 -40 -28.5 -68.5t-67.5 -28.5q-40 0 -68 29t-28 68t28 67.5t68 28.5t68 -28t28 -68zM243 0h-174v493h174v-493z" />
    <glyph glyph-name="j" unicode="j" 
d="M252 647q0 -40 -28.5 -68.5t-67.5 -28.5q-40 0 -68 29t-28 68t28 67.5t68 28.5t68 -28t28 -68zM243 -218h-174v711h174v-711z" />
    <glyph glyph-name="k" unicode="k" horiz-adv-x="641" 
d="M651 0h-229l-186 219v-219h-171v757h171v-479l179 215h216l-222 -237z" />
    <glyph glyph-name="l" unicode="l" 
d="M243 0h-174v757h174v-757z" />
    <glyph glyph-name="m" unicode="m" horiz-adv-x="948" 
d="M889 0h-172v269q0 61 -15 87t-56 26q-56 0 -74 -46q-13 -34 -13 -127v-209h-168v269q0 61 -13 85q-16 28 -57 28q-57 0 -75 -46q-13 -34 -13 -127v-209h-169v493h171v-86q61 102 166 102q120 0 153 -93q59 93 168 93q89 0 134 -60q33 -44 33 -147v-302z" />
    <glyph glyph-name="n" unicode="n" horiz-adv-x="653" 
d="M594 0h-174v264q0 113 -81 113q-57 0 -80.5 -41.5t-23.5 -128.5v-207h-171v493h159v-100q67 116 189 116q99 0 146 -60q36 -46 36 -167v-282z" />
    <glyph glyph-name="o" unicode="o" horiz-adv-x="623" 
d="M587 245q0 -110 -80 -187t-196 -77q-117 0 -196 77t-79 187t79.5 187t195.5 77t196 -77t80 -187zM414 245q0 55 -27.5 87t-75.5 32t-75.5 -32t-27.5 -87t27.5 -86.5t75.5 -31.5t75.5 31.5t27.5 86.5z" />
    <glyph glyph-name="p" unicode="p" horiz-adv-x="660" 
d="M619 245q0 -119 -61.5 -191.5t-159.5 -72.5q-61 0 -100 22t-72 77q5 -35 5 -88v-210h-166v711h160v-83q66 99 167 99q103 0 165 -70.5t62 -193.5zM446 245q0 58 -30.5 91t-83.5 33t-83 -33t-30 -91q0 -57 30.5 -90.5t82.5 -33.5t83 33.5t31 90.5z" />
    <glyph glyph-name="q" unicode="q" horiz-adv-x="660" 
d="M595 -218h-167v210q0 46 6 88q-33 -55 -72 -77t-100 -22q-98 0 -159.5 72.5t-61.5 191.5q0 123 62 193.5t165 70.5q101 0 167 -99v83h160v-711zM441 245q0 58 -30.5 91t-83.5 33t-83 -33t-30 -91q0 -57 30.5 -90.5t82.5 -33.5t83 33.5t31 90.5z" />
    <glyph glyph-name="r" unicode="r" horiz-adv-x="447" 
d="M447 501l-17 -158q-35 10 -60 10q-132 0 -132 -149v-204h-173v493h164v-116q50 127 169 127q18 0 49 -3z" />
    <glyph glyph-name="s" unicode="s" horiz-adv-x="484" 
d="M455 150q0 -75 -57.5 -122t-154.5 -47q-127 0 -225 60l36 133q78 -69 176 -69q67 0 67 41q0 27 -28 38l-77 20q-149 39 -149 147q0 70 53 114t147 44q95 0 197 -45l-36 -120q-70 48 -142 48q-60 0 -60 -36q0 -22 31 -33l82 -24q72 -22 105 -55q35 -36 35 -94z" />
    <glyph glyph-name="t" unicode="t" horiz-adv-x="353" 
d="M336 370h-74v-370h-171v370h-74v123h74v147h171v-147h74v-123z" />
    <glyph glyph-name="u" unicode="u" horiz-adv-x="631" 
d="M570 241q0 -71 -8 -105q-12 -51 -51 -90q-65 -65 -196 -65q-129 0 -197 65q-37 36 -50 87q-8 36 -8 108v252h166v-263q0 -60 19 -87q20 -30 68 -30t68 30q19 27 19 87v263h170v-252z" />
    <glyph glyph-name="v" unicode="v" horiz-adv-x="564" 
d="M573 493l-224 -493h-136l-222 493h186l84 -218q9 -22 23 -77q4 24 24 77l84 218h181z" />
    <glyph glyph-name="w" unicode="w" horiz-adv-x="803" 
d="M824 493l-207 -493h-123l-73 223q-8 26 -19 77q-9 -43 -20 -77l-73 -223h-123l-206 493h179l74 -218q14 -42 21 -77q4 22 22 77l73 218h105l73 -218q8 -23 22 -77q5 29 21 77l74 218h180z" />
    <glyph glyph-name="x" unicode="x" horiz-adv-x="530" 
d="M557 0h-196l-74 124q-17 28 -24 59q-9 -34 -24 -59l-73 -124h-193l194 264l-166 229h190l46 -84q17 -30 24 -59q8 30 24 59l47 84h197l-169 -229z" />
    <glyph glyph-name="y" unicode="y" horiz-adv-x="532" 
d="M541 493l-310 -711h-194l139 293l-199 418h193l69 -178q8 -20 23 -78q8 41 23 78l70 178h186z" />
    <glyph glyph-name="z" unicode="z" horiz-adv-x="542" 
d="M522 493l-262 -359h240v-134h-499l252 366h-222v127h491z" />
    <glyph glyph-name="braceleft" unicode="{" horiz-adv-x="500" 
d="M436 -202q-7 0 -20 -1h-20q-101 0 -146 24q-33 17 -44 52q-8 26 -8 85v125q0 65 -24 91.5t-82 26.5h-9q-6 -1 -9 -1v118h9q6 -1 9 -1q58 0 82 27.5t24 91.5v124q0 59 8 86q11 35 44 52q45 24 147 24h19q13 -1 20 -1v-118q-4 0 -10 1h-10q-50 0 -65.5 -18.5t-15.5 -70.5
v-117q0 -66 -20 -95q-22 -32 -83 -44q61 -12 82 -42t21 -96v-118q0 -52 15.5 -70t64.5 -18h11q7 1 10 1v-118z" />
    <glyph glyph-name="bar" unicode="|" horiz-adv-x="500" 
d="M309 -236h-117v1000h117v-1000z" />
    <glyph glyph-name="braceright" unicode="}" horiz-adv-x="500" 
d="M427 200q-3 0 -9 1h-9q-58 0 -82 -27t-24 -91v-125q0 -64 -10 -90q-15 -41 -64 -58q-41 -13 -120 -13h-22q-14 1 -22 1v118q4 0 11 -1h10q50 0 65 18t15 70v118q0 65 21 95.5t82 42.5q-61 12 -83 44q-20 29 -20 95v117q0 52 -15 70.5t-63 18.5h-11q-8 -1 -12 -1v118
q7 0 20 1h19q101 0 147 -24q33 -17 44 -52q8 -27 8 -86v-124q0 -65 24 -92t82 -27q3 0 9 1h9v-118z" />
    <glyph glyph-name="asciitilde" unicode="~" horiz-adv-x="833" 
d="M747 276q-97 -67 -184 -67q-44 0 -84 14q-143 50 -205 50q-79 0 -187 -77v124q108 70 189 70q59 0 144 -28l72 -24q41 -12 74 -12q79 0 181 74v-124z" />
    <glyph glyph-name="nonbreakingspace" unicode="&#xa0;" horiz-adv-x="313" 
 />
    <glyph glyph-name="Agrave" unicode="&#xc0;" horiz-adv-x="722" 
d="M447 791h-125l-131 168h167zM730 0h-194l-36 128h-277l-37 -128h-194l247 715h244zM459 267l-73 236q-2 7 -24 96q-18 -72 -25 -96l-72 -236h194z" />
    <glyph glyph-name="Aacute" unicode="&#xc1;" horiz-adv-x="722" 
d="M529 959l-131 -168h-125l89 168h167zM730 0h-194l-36 128h-277l-37 -128h-194l247 715h244zM459 267l-73 236q-2 7 -24 96q-18 -72 -25 -96l-72 -236h194z" />
    <glyph glyph-name="Acircumflex" unicode="&#xc2;" horiz-adv-x="722" 
d="M518 790h-75l-81 85l-82 -85h-75l89 168h135zM730 0h-194l-36 128h-277l-37 -128h-194l247 715h244zM459 267l-73 236q-2 7 -24 96q-18 -72 -25 -96l-72 -236h194z" />
    <glyph glyph-name="Atilde" unicode="&#xc3;" horiz-adv-x="722" 
d="M523 929q-30 -124 -107 -124q-20 0 -37 5l-45 13q-24 7 -33 7q-31 0 -44 -38h-58q27 120 105 120q16 0 44 -8l46 -13q14 -4 28 -4q33 0 43 42h58zM730 0h-194l-36 128h-277l-37 -128h-194l247 715h244zM459 267l-73 236q-2 7 -24 96q-18 -72 -25 -96l-72 -236h194z" />
    <glyph glyph-name="Adieresis" unicode="&#xc4;" horiz-adv-x="722" 
d="M526 882q0 -31 -20 -51t-50 -20q-29 0 -49.5 21t-20.5 50q0 27 21 48t49 21q29 0 49.5 -20t20.5 -49zM335 882q0 -31 -19.5 -51t-49.5 -20q-29 0 -50 21t-21 50q0 27 21.5 48t49.5 21q29 0 49 -20t20 -49zM730 0h-194l-36 128h-277l-37 -128h-194l247 715h244zM459 267
l-73 236q-2 7 -24 96q-18 -72 -25 -96l-72 -236h194z" />
    <glyph glyph-name="Amacron" unicode="&#x100;" horiz-adv-x="722" 
d="M551 826h-380v102h380v-102zM730 0h-194l-36 128h-277l-37 -128h-194l247 715h244zM459 267l-73 236q-2 7 -24 96q-18 -72 -25 -96l-72 -236h194z" />
    <glyph glyph-name="Abreve" unicode="&#x102;" horiz-adv-x="722" 
d="M519 937q-12 -150 -153 -150q-142 0 -154 150h64q6 -68 90 -68q86 0 89 68h64zM730 0h-194l-36 128h-277l-37 -128h-194l247 715h244zM459 267l-73 236q-2 7 -24 96q-18 -72 -25 -96l-72 -236h194z" />
    <glyph glyph-name="Aring" unicode="&#xc5;" horiz-adv-x="722" 
d="M730 0h-194l-36 128h-277l-37 -128h-194l252 715l78 -2v2q-40 10 -64.5 43.5t-24.5 76.5q0 53 37 90.5t91 37.5t91.5 -37.5t37.5 -90.5q0 -91 -86 -120v-2l75 2zM416 834q0 23 -16 39t-39 16q-22 0 -38 -16.5t-16 -38.5t16 -37.5t38 -15.5q23 0 39 15.5t16 37.5zM459 267
l-73 236q-2 7 -24 96q-18 -72 -25 -96l-72 -236h194z" />
    <glyph glyph-name="Aogonek" unicode="&#x104;" horiz-adv-x="722" 
d="M752 -203q-47 -15 -114 -15q-47 0 -83 26q-39 29 -39 74q0 73 83 118h-63l-36 128h-277l-37 -128h-194l247 715h244l247 -715h-34q-26 0 -46 -13q-21 -16 -21 -41q0 -48 58 -48q30 0 65 13v-114zM459 267l-73 236q-2 7 -24 96q-18 -72 -25 -96l-72 -236h194z" />
    <glyph glyph-name="AE" unicode="&#xc6;" horiz-adv-x="861" 
d="M876 0h-406l-37 128h-220l-36 -128h-193l247 715h427l48 -157h-231l41 -124h228l47 -153h-225l40 -121h222zM392 267l-46 157q-9 31 -24 96q-12 -52 -25 -96l-46 -157h141z" />
    <glyph glyph-name="Cacute" unicode="&#x106;" horiz-adv-x="628" 
d="M579 959l-131 -168h-125l89 168h167zM594 27q-93 -45 -185 -45q-158 0 -260.5 106.5t-102.5 268.5t102.5 268.5t260.5 106.5q92 0 185 -45v-213q-77 86 -165 86q-84 0 -136 -58t-52 -149q0 -84 52 -141.5t136 -57.5q88 0 165 86v-213z" />
    <glyph glyph-name="Ccircumflex" unicode="&#x108;" horiz-adv-x="628" 
d="M552 796h-75l-81 85l-82 -85h-75l89 168h135zM594 27q-93 -45 -185 -45q-158 0 -260.5 106.5t-102.5 268.5t102.5 268.5t260.5 106.5q92 0 185 -45v-213q-77 86 -165 86q-84 0 -136 -58t-52 -149q0 -84 52 -141.5t136 -57.5q88 0 165 86v-213z" />
    <glyph glyph-name="Ccaron" unicode="&#x10c;" horiz-adv-x="628" 
d="M544 957l-89 -168h-135l-89 168h75l82 -85l81 85h75zM594 27q-93 -45 -185 -45q-158 0 -260.5 106.5t-102.5 268.5t102.5 268.5t260.5 106.5q92 0 185 -45v-213q-77 86 -165 86q-84 0 -136 -58t-52 -149q0 -84 52 -141.5t136 -57.5q88 0 165 86v-213z" />
    <glyph glyph-name="Cdotaccent" unicode="&#x10a;" horiz-adv-x="628" 
d="M473 856q0 -32 -20.5 -52.5t-52.5 -20.5q-29 0 -50.5 21.5t-21.5 51.5q0 28 22 50.5t50 22.5q31 0 52 -21.5t21 -51.5zM594 27q-93 -45 -185 -45q-158 0 -260.5 106.5t-102.5 268.5t102.5 268.5t260.5 106.5q92 0 185 -45v-213q-77 86 -165 86q-84 0 -136 -58t-52 -149
q0 -84 52 -141.5t136 -57.5q88 0 165 86v-213z" />
    <glyph glyph-name="Ccedilla" unicode="&#xc7;" horiz-adv-x="628" 
d="M536 -135q0 -102 -124 -102q-64 0 -142 22v68q79 -22 132 -22q42 0 42 35q0 31 -58 31q-17 0 -27 -1v89q-125 15 -211 103q-102 107 -102 269t102.5 268.5t260.5 106.5q92 0 185 -45v-213q-77 86 -165 86q-84 0 -136 -58t-52 -149q0 -84 52 -141.5t136 -57.5q88 0 165 86
v-213q-90 -43 -179 -45v-23h9q112 0 112 -94z" />
    <glyph glyph-name="Dcaron" unicode="&#x10e;" horiz-adv-x="766" 
d="M513 958l-89 -168h-135l-89 168h75l82 -85l81 85h75zM720 357q0 -192 -138 -290q-60 -43 -142 -57q-57 -10 -165 -10h-199v715h172q123 0 182 -9q88 -14 152 -59q138 -97 138 -290zM522 357q0 105 -54 151.5t-166 46.5h-33v-395h33q113 0 166.5 46.5t53.5 150.5z" />
    <glyph glyph-name="Dcroat" unicode="&#x110;" horiz-adv-x="777" 
d="M731 357q0 -192 -138 -290q-60 -43 -143 -57q-56 -10 -165 -10h-198v300h-87v126h87v289h171q123 0 182 -9q89 -14 153 -59q138 -97 138 -290zM533 357q0 105 -54 151.5t-166 46.5h-34v-129h133v-126h-133v-140h34q113 0 166.5 46.5t53.5 150.5z" />
    <glyph glyph-name="Eth" unicode="&#xd0;" horiz-adv-x="777" 
d="M731 357q0 -192 -138 -290q-60 -43 -143 -57q-56 -10 -165 -10h-198v300h-87v126h87v289h171q123 0 182 -9q89 -14 153 -59q138 -97 138 -290zM533 357q0 105 -54 151.5t-166 46.5h-34v-129h133v-126h-133v-140h34q113 0 166.5 46.5t53.5 150.5z" />
    <glyph glyph-name="Egrave" unicode="&#xc8;" horiz-adv-x="567" 
d="M380 791h-125l-131 168h167zM514 0h-438v715h438v-157h-248v-124h234v-153h-234v-121h248v-160z" />
    <glyph glyph-name="Eacute" unicode="&#xc9;" horiz-adv-x="567" 
d="M476 959l-131 -168h-125l89 168h167zM514 0h-438v715h438v-157h-248v-124h234v-153h-234v-121h248v-160z" />
    <glyph glyph-name="Ecircumflex" unicode="&#xca;" horiz-adv-x="567" 
d="M468 790h-75l-81 85l-82 -85h-75l89 168h135zM514 0h-438v715h438v-157h-248v-124h234v-153h-234v-121h248v-160z" />
    <glyph glyph-name="Ecaron" unicode="&#x11a;" horiz-adv-x="567" 
d="M454 956l-89 -168h-135l-89 168h75l82 -85l81 85h75zM514 0h-438v715h438v-157h-248v-124h234v-153h-234v-121h248v-160z" />
    <glyph glyph-name="Edieresis" unicode="&#xcb;" horiz-adv-x="567" 
d="M465 882q0 -31 -20 -51t-50 -20q-29 0 -49.5 21t-20.5 50q0 27 21 48t49 21q29 0 49.5 -20t20.5 -49zM274 882q0 -31 -19.5 -51t-49.5 -20q-29 0 -50 21t-21 50q0 27 21.5 48t49.5 21q29 0 49 -20t20 -49zM514 0h-438v715h438v-157h-248v-124h234v-153h-234v-121h248
v-160z" />
    <glyph glyph-name="Emacron" unicode="&#x112;" horiz-adv-x="567" 
d="M488 828h-380v102h380v-102zM514 0h-438v715h438v-157h-248v-124h234v-153h-234v-121h248v-160z" />
    <glyph glyph-name="Ebreve" unicode="&#x114;" horiz-adv-x="567" 
d="M455 937q-11 -150 -153 -150t-154 150h64q6 -68 90 -68q87 0 89 68h64zM514 0h-438v715h438v-157h-248v-124h234v-153h-234v-121h248v-160z" />
    <glyph glyph-name="Edotaccent" unicode="&#x116;" horiz-adv-x="567" 
d="M383 859q0 -32 -20.5 -52.5t-52.5 -20.5q-29 0 -50.5 21.5t-21.5 51.5q0 28 22 50.5t50 22.5q31 0 52 -21.5t21 -51.5zM514 0h-438v715h438v-157h-248v-124h234v-153h-234v-121h248v-160z" />
    <glyph glyph-name="Eogonek" unicode="&#x118;" horiz-adv-x="567" 
d="M514 0h-70q-26 0 -46 -13q-21 -16 -21 -41q0 -48 58 -48q30 0 65 13v-114q-47 -15 -114 -15q-47 0 -83 26q-39 29 -39 74q0 73 83 118h-271v715h438v-157h-248v-124h234v-153h-234v-121h248v-160z" />
    <glyph glyph-name="Gcircumflex" unicode="&#x11c;" horiz-adv-x="843" 
d="M588 791h-75l-81 85l-82 -85h-75l89 168h135zM800 370q0 -184 -98.5 -285.5t-273.5 -101.5q-170 0 -276 107.5t-106 266.5q0 162 108.5 268t273.5 106q210 0 322 -165l-169 -81q-60 82 -153 82q-86 0 -137 -58t-51 -160t50.5 -160.5t137.5 -58.5q75 0 124.5 37t57.5 96
h-194v150h383q1 -15 1 -43z" />
    <glyph glyph-name="Gbreve" unicode="&#x11e;" horiz-adv-x="843" 
d="M587 936q-12 -150 -153 -150q-142 0 -154 150h64q6 -68 90 -68q86 0 89 68h64zM800 370q0 -184 -98.5 -285.5t-273.5 -101.5q-170 0 -276 107.5t-106 266.5q0 162 108.5 268t273.5 106q210 0 322 -165l-169 -81q-60 82 -153 82q-86 0 -137 -58t-51 -160t50.5 -160.5
t137.5 -58.5q75 0 124.5 37t57.5 96h-194v150h383q1 -15 1 -43z" />
    <glyph glyph-name="Gdotaccent" unicode="&#x120;" horiz-adv-x="843" 
d="M504 856q0 -32 -20.5 -52.5t-52.5 -20.5q-29 0 -50.5 21.5t-21.5 51.5q0 28 22 50.5t50 22.5q31 0 52 -21.5t21 -51.5zM800 370q0 -184 -98.5 -285.5t-273.5 -101.5q-170 0 -276 107.5t-106 266.5q0 162 108.5 268t273.5 106q210 0 322 -165l-169 -81q-60 82 -153 82
q-86 0 -137 -58t-51 -160t50.5 -160.5t137.5 -58.5q75 0 124.5 37t57.5 96h-194v150h383q1 -15 1 -43z" />
    <glyph glyph-name="Gcommaaccent" unicode="&#x122;" horiz-adv-x="843" 
d="M800 370q0 -184 -98.5 -285.5t-273.5 -101.5q-170 0 -276 107.5t-106 266.5q0 162 108.5 268t273.5 106q210 0 322 -165l-169 -81q-60 82 -153 82q-86 0 -137 -58t-51 -160t50.5 -160.5t137.5 -58.5q75 0 124.5 37t57.5 96h-194v150h383q1 -15 1 -43zM542 -39l-151 -306
h-135l104 306h182z" />
    <glyph glyph-name="Hcircumflex" unicode="&#x124;" horiz-adv-x="802" 
d="M553 788h-75l-81 85l-82 -85h-75l89 168h135zM726 0h-195v291h-260v-291h-195v715h195v-278h260v278h195v-715z" />
    <glyph glyph-name="Hbar" unicode="&#x126;" horiz-adv-x="802" 
d="M776 546h-50v-546h-195v291h-260v-291h-195v546h-50v102h50v67h195v-67h260v67h195v-67h50v-102zM531 437v109h-260v-109h260z" />
    <glyph glyph-name="Igrave" unicode="&#xcc;" horiz-adv-x="359" 
d="M267 791h-125l-131 168h167zM278 0h-197v715h197v-715z" />
    <glyph glyph-name="Iacute" unicode="&#xcd;" horiz-adv-x="359" 
d="M369 959l-131 -168h-125l89 168h167zM278 0h-197v715h197v-715z" />
    <glyph glyph-name="Ibreve" unicode="&#x12c;" horiz-adv-x="359" 
d="M336 937q-11 -150 -153 -150t-154 150h64q6 -68 90 -68q86 0 89 68h64zM278 0h-197v715h197v-715z" />
    <glyph glyph-name="Icircumflex" unicode="&#xce;" horiz-adv-x="359" 
d="M338 790h-75l-81 85l-82 -85h-75l89 168h135zM278 0h-197v715h197v-715z" />
    <glyph glyph-name="Itilde" unicode="&#x128;" horiz-adv-x="359" 
d="M350 939q-29 -124 -107 -124q-19 0 -37 5l-45 13q-24 7 -33 7q-31 0 -44 -38h-58q27 120 105 120q16 0 44 -8l46 -13q14 -4 28 -4q33 0 43 42h58zM278 0h-197v715h197v-715z" />
    <glyph glyph-name="Idieresis" unicode="&#xcf;" horiz-adv-x="359" 
d="M345 882q0 -31 -20 -51t-50 -20q-29 0 -49.5 21t-20.5 50q0 27 21 48t49 21q29 0 49.5 -20t20.5 -49zM154 882q0 -31 -19.5 -51t-49.5 -20q-29 0 -50 21t-21 50q0 27 21.5 48t49.5 21q29 0 49 -20t20 -49zM278 0h-197v715h197v-715z" />
    <glyph glyph-name="Imacron" unicode="&#x12a;" horiz-adv-x="359" 
d="M370 827h-380v102h380v-102zM278 0h-197v715h197v-715z" />
    <glyph glyph-name="Idotaccent" unicode="&#x130;" horiz-adv-x="359" 
d="M257 856q0 -32 -21 -52.5t-52 -20.5q-30 0 -51 21.5t-21 51.5q0 28 21.5 50.5t50.5 22.5q30 0 51.5 -21.5t21.5 -51.5zM278 0h-197v715h197v-715z" />
    <glyph glyph-name="Iogonek" unicode="&#x12e;" horiz-adv-x="359" 
d="M298 -203q-47 -15 -114 -15q-47 0 -83 26q-39 29 -39 74q0 73 83 118h-64v715h197v-715h-36q-26 0 -46 -13q-21 -16 -21 -41q0 -48 58 -48q30 0 65 13v-114z" />
    <glyph glyph-name="Jcircumflex" unicode="&#x134;" horiz-adv-x="479" 
d="M470 788h-75l-81 85l-82 -85h-75l89 168h135zM411 252q0 -116 -31 -171q-57 -100 -182 -100q-135 0 -210 114l119 108q9 -66 61 -66q33 0 43 47q6 32 6 138v393h194v-463z" />
    <glyph glyph-name="Kcommaaccent" unicode="&#x136;" horiz-adv-x="725" 
d="M745 0h-243l-233 321v-321h-193v715h193v-325l226 325h227l-264 -349zM473 -39l-151 -306h-135l104 306h182z" />
    <glyph glyph-name="Lacute" unicode="&#x139;" horiz-adv-x="532" 
d="M362 960l-131 -168h-125l89 168h167zM513 0h-437v715h195v-548h242v-167z" />
    <glyph glyph-name="Lcaron" unicode="&#x13d;" horiz-adv-x="532" 
d="M513 0h-437v715h195v-548h242v-167zM514 756l-91 -246h-135l44 246h182z" />
    <glyph glyph-name="Lcommaaccent" unicode="&#x13b;" horiz-adv-x="532" 
d="M513 0h-437v715h195v-548h242v-167zM420 -39l-151 -306h-135l104 306h182z" />
    <glyph glyph-name="Lslash" unicode="&#x141;" horiz-adv-x="547" 
d="M528 0h-437v234l-53 -36v163l53 36v318h195v-206l124 86v-163l-124 -86v-179h242v-167z" />
    <glyph glyph-name="Ldot" unicode="&#x13f;" horiz-adv-x="532" 
d="M482 352q0 -42 -29 -70.5t-70 -28.5t-69.5 29t-28.5 70t28 69.5t70 28.5q41 0 70 -28.5t29 -69.5zM513 0h-437v715h195v-548h242v-167z" />
    <glyph glyph-name="Nacute" unicode="&#x143;" horiz-adv-x="852" 
d="M609 959l-131 -168h-125l89 168h167zM775 0h-187l-270 369q-18 25 -65 125q11 -88 11 -141v-353h-188v715h188l270 -368q17 -23 65 -126q-11 88 -11 141v353h187v-715z" />
    <glyph glyph-name="Ncaron" unicode="&#x147;" horiz-adv-x="852" 
d="M600 962l-89 -168h-135l-89 168h75l82 -85l81 85h75zM775 0h-187l-270 369q-18 25 -65 125q11 -88 11 -141v-353h-188v715h188l270 -368q17 -23 65 -126q-11 88 -11 141v353h187v-715z" />
    <glyph glyph-name="Ntilde" unicode="&#xd1;" horiz-adv-x="852" 
d="M595 929q-30 -124 -107 -124q-20 0 -37 5l-45 13q-24 7 -33 7q-31 0 -44 -38h-58q27 120 105 120q16 0 44 -8l46 -13q14 -4 28 -4q33 0 43 42h58zM775 0h-187l-270 369q-18 25 -65 125q11 -88 11 -141v-353h-188v715h188l270 -368q17 -23 65 -126q-11 88 -11 141v353h187
v-715z" />
    <glyph glyph-name="Ncommaaccent" unicode="&#x145;" horiz-adv-x="852" 
d="M775 0h-187l-270 369q-18 25 -65 125q11 -88 11 -141v-353h-188v715h188l270 -368q17 -23 65 -126q-11 88 -11 141v353h187v-715zM532 -39l-151 -306h-135l104 306h182z" />
    <glyph glyph-name="Ograve" unicode="&#xd2;" horiz-adv-x="856" 
d="M529 791h-125l-131 168h167zM810 356q0 -157 -112 -266t-270 -109q-135 0 -243 86q-139 111 -139 289q0 156 112.5 265.5t269.5 109.5q158 0 270 -109t112 -266zM615 356q0 88 -53 149t-134 61t-134 -60.5t-53 -149.5q0 -90 51.5 -150t135.5 -60q82 0 134.5 60.5
t52.5 149.5z" />
    <glyph glyph-name="Oacute" unicode="&#xd3;" horiz-adv-x="856" 
d="M599 959l-131 -168h-125l89 168h167zM810 356q0 -157 -112 -266t-270 -109q-135 0 -243 86q-139 111 -139 289q0 156 112.5 265.5t269.5 109.5q158 0 270 -109t112 -266zM615 356q0 88 -53 149t-134 61t-134 -60.5t-53 -149.5q0 -90 51.5 -150t135.5 -60q82 0 134.5 60.5
t52.5 149.5z" />
    <glyph glyph-name="Ocircumflex" unicode="&#xd4;" horiz-adv-x="856" 
d="M580 790h-75l-81 85l-82 -85h-75l89 168h135zM810 356q0 -157 -112 -266t-270 -109q-135 0 -243 86q-139 111 -139 289q0 156 112.5 265.5t269.5 109.5q158 0 270 -109t112 -266zM615 356q0 88 -53 149t-134 61t-134 -60.5t-53 -149.5q0 -90 51.5 -150t135.5 -60
q82 0 134.5 60.5t52.5 149.5z" />
    <glyph glyph-name="Otilde" unicode="&#xd5;" horiz-adv-x="856" 
d="M603 929q-30 -124 -107 -124q-20 0 -37 5l-45 13q-24 7 -33 7q-31 0 -44 -38h-58q27 120 105 120q16 0 44 -8l46 -13q14 -4 28 -4q33 0 43 42h58zM810 356q0 -157 -112 -266t-270 -109q-135 0 -243 86q-139 111 -139 289q0 156 112.5 265.5t269.5 109.5q158 0 270 -109
t112 -266zM615 356q0 88 -53 149t-134 61t-134 -60.5t-53 -149.5q0 -90 51.5 -150t135.5 -60q82 0 134.5 60.5t52.5 149.5z" />
    <glyph glyph-name="Odieresis" unicode="&#xd6;" horiz-adv-x="856" 
d="M593 882q0 -31 -20 -51t-50 -20q-29 0 -49.5 21t-20.5 50q0 27 21 48t49 21q29 0 49.5 -20t20.5 -49zM402 882q0 -31 -19.5 -51t-49.5 -20q-29 0 -50 21t-21 50q0 27 21.5 48t49.5 21q29 0 49 -20t20 -49zM810 356q0 -157 -112 -266t-270 -109q-135 0 -243 86
q-139 111 -139 289q0 156 112.5 265.5t269.5 109.5q158 0 270 -109t112 -266zM615 356q0 88 -53 149t-134 61t-134 -60.5t-53 -149.5q0 -90 51.5 -150t135.5 -60q82 0 134.5 60.5t52.5 149.5z" />
    <glyph glyph-name="Omacron" unicode="&#x14c;" horiz-adv-x="856" 
d="M619 825h-380v102h380v-102zM810 356q0 -157 -112 -266t-270 -109q-135 0 -243 86q-139 111 -139 289q0 156 112.5 265.5t269.5 109.5q158 0 270 -109t112 -266zM615 356q0 88 -53 149t-134 61t-134 -60.5t-53 -149.5q0 -90 51.5 -150t135.5 -60q82 0 134.5 60.5
t52.5 149.5z" />
    <glyph glyph-name="Obreve" unicode="&#x14e;" horiz-adv-x="856" 
d="M579 937q-11 -150 -153 -150t-154 150h64q6 -68 90 -68q86 0 89 68h64zM810 356q0 -157 -112 -266t-270 -109q-135 0 -243 86q-139 111 -139 289q0 156 112.5 265.5t269.5 109.5q158 0 270 -109t112 -266zM615 356q0 88 -53 149t-134 61t-134 -60.5t-53 -149.5
q0 -90 51.5 -150t135.5 -60q82 0 134.5 60.5t52.5 149.5z" />
    <glyph glyph-name="Ohungarumlaut" unicode="&#x150;" horiz-adv-x="856" 
d="M638 958l-155 -168h-58l92 168h121zM475 958l-117 -168h-54l55 168h116zM810 356q0 -157 -112 -266t-270 -109q-135 0 -243 86q-139 111 -139 289q0 156 112.5 265.5t269.5 109.5q158 0 270 -109t112 -266zM615 356q0 88 -53 149t-134 61t-134 -60.5t-53 -149.5
q0 -90 51.5 -150t135.5 -60q82 0 134.5 60.5t52.5 149.5z" />
    <glyph glyph-name="Oslash" unicode="&#xd8;" horiz-adv-x="856" 
d="M810 357q0 -156 -112 -265t-270 -109q-140 0 -242 83l-86 -89l-45 46l83 86q-92 110 -92 248q0 157 111.5 266t276.5 109q128 0 229 -79l76 79l47 -46l-74 -77q98 -100 98 -252zM623 360q0 71 -39 116l-270 -279q47 -38 114 -38q81 0 138 58t57 143zM536 521
q-50 35 -108 35q-80 0 -137 -58t-57 -141q0 -63 34 -114z" />
    <glyph glyph-name="OE" unicode="&#x152;" horiz-adv-x="1086" 
d="M1053 0h-420v97q-86 -116 -235 -116q-143 0 -242 100q-110 112 -110 276q0 162 102.5 269.5t267.5 107.5q140 0 217 -101v82h420v-157h-248v-124h234v-153h-234v-121h248v-160zM621 357q0 98 -54.5 157.5t-138.5 59.5t-138.5 -63t-54.5 -154q0 -93 53 -153
q54 -63 140 -63t139.5 60t53.5 156z" />
    <glyph glyph-name="Racute" unicode="&#x154;" horiz-adv-x="641" 
d="M432 960l-131 -168h-125l89 168h167zM643 0h-220l-164 280v-280h-183v715h216q92 0 132 -6q63 -10 104 -42q80 -62 80 -175q0 -170 -160 -204zM416 466q0 55 -28 77t-90 22h-39v-188h36q121 0 121 89z" />
    <glyph glyph-name="Rcaron" unicode="&#x158;" horiz-adv-x="641" 
d="M442 957l-89 -168h-135l-89 168h75l82 -85l81 85h75zM643 0h-220l-164 280v-280h-183v715h216q92 0 132 -6q63 -10 104 -42q80 -62 80 -175q0 -170 -160 -204zM416 466q0 55 -28 77t-90 22h-39v-188h36q121 0 121 89z" />
    <glyph glyph-name="Rcommaaccent" unicode="&#x156;" horiz-adv-x="641" 
d="M643 0h-220l-164 280v-280h-183v715h216q92 0 132 -6q63 -10 104 -42q80 -62 80 -175q0 -170 -160 -204zM440 -39l-151 -306h-135l104 306h182zM416 466q0 55 -28 77t-90 22h-39v-188h36q121 0 121 89z" />
    <glyph glyph-name="Sacute" unicode="&#x15a;" horiz-adv-x="581" 
d="M476 959l-131 -168h-125l89 168h167zM548 233q0 -113 -74.5 -182.5t-199.5 -69.5q-143 0 -254 105l88 145q86 -98 170 -98q40 0 64.5 21t24.5 53q0 40 -30 61q-23 17 -90 34q-100 26 -144 70q-48 46 -48 128q0 101 68 166.5t179 65.5q120 0 212 -64l-61 -140
q-67 57 -137 57q-35 0 -57 -17t-22 -43q0 -34 33 -52q18 -10 81 -27q103 -27 146 -70q51 -49 51 -143z" />
    <glyph glyph-name="Scircumflex" unicode="&#x15c;" horiz-adv-x="581" 
d="M455 789h-75l-81 85l-82 -85h-75l89 168h135zM548 233q0 -113 -74.5 -182.5t-199.5 -69.5q-143 0 -254 105l88 145q86 -98 170 -98q40 0 64.5 21t24.5 53q0 40 -30 61q-23 17 -90 34q-100 26 -144 70q-48 46 -48 128q0 101 68 166.5t179 65.5q120 0 212 -64l-61 -140
q-67 57 -137 57q-35 0 -57 -17t-22 -43q0 -34 33 -52q18 -10 81 -27q103 -27 146 -70q51 -49 51 -143z" />
    <glyph glyph-name="Scaron" unicode="&#x160;" horiz-adv-x="581" 
d="M462 955l-89 -168h-135l-89 168h75l82 -85l81 85h75zM548 233q0 -113 -74.5 -182.5t-199.5 -69.5q-143 0 -254 105l88 145q86 -98 170 -98q40 0 64.5 21t24.5 53q0 40 -30 61q-23 17 -90 34q-100 26 -144 70q-48 46 -48 128q0 101 68 166.5t179 65.5q120 0 212 -64
l-61 -140q-67 57 -137 57q-35 0 -57 -17t-22 -43q0 -34 33 -52q18 -10 81 -27q103 -27 146 -70q51 -49 51 -143z" />
    <glyph glyph-name="Scedilla" unicode="&#x15e;" horiz-adv-x="581" 
d="M548 233q0 -106 -66 -174.5t-179 -76.5v-23h9q112 0 112 -94q0 -102 -124 -102q-64 0 -142 22v68q79 -22 132 -22q42 0 42 35q0 31 -58 31q-17 0 -27 -1v86q-125 7 -227 104l88 145q86 -98 170 -98q40 0 64.5 21t24.5 53q0 40 -30 61q-23 17 -90 34q-100 26 -144 70
q-48 46 -48 128q0 101 68 166.5t179 65.5q120 0 212 -64l-61 -140q-67 57 -137 57q-35 0 -57 -17t-22 -43q0 -34 33 -52q18 -10 81 -27q103 -27 146 -70q51 -49 51 -143z" />
    <glyph glyph-name="Scommaaccent" unicode="&#x218;" horiz-adv-x="581" 
d="M548 233q0 -113 -74.5 -182.5t-199.5 -69.5q-143 0 -254 105l88 145q86 -98 170 -98q40 0 64.5 21t24.5 53q0 40 -30 61q-23 17 -90 34q-100 26 -144 70q-48 46 -48 128q0 101 68 166.5t179 65.5q120 0 212 -64l-61 -140q-67 57 -137 57q-35 0 -57 -17t-22 -43
q0 -34 33 -52q18 -10 81 -27q103 -27 146 -70q51 -49 51 -143zM370 -39l-151 -306h-135l104 306h182z" />
    <glyph glyph-name="Tcaron" unicode="&#x164;" horiz-adv-x="553" 
d="M427 961l-89 -168h-135l-89 168h75l82 -85l81 85h75zM534 546h-160v-546h-195v546h-159v169h514v-169z" />
    <glyph glyph-name="Tcommaaccent" unicode="&#x162;" horiz-adv-x="553" 
d="M534 546h-160v-546h-195v546h-159v169h514v-169zM374 -39l-151 -306h-135l104 306h182z" />
    <glyph glyph-name="Tcommaaccent" unicode="&#x21a;" horiz-adv-x="553" 
d="M534 546h-160v-546h-195v546h-159v169h514v-169zM374 -39l-151 -306h-135l104 306h182z" />
    <glyph glyph-name="Tcedilla" unicode="&#xf6c1;" horiz-adv-x="553" 
d="M534 546h-160v-546h-79v-41h9q112 0 112 -94q0 -102 -124 -102q-64 0 -142 22v68q79 -22 132 -22q42 0 42 35q0 31 -58 31q-17 0 -27 -1v104h-60v546h-159v169h514v-169z" />
    <glyph glyph-name="Tbar" unicode="&#x166;" horiz-adv-x="553" 
d="M534 546h-160v-205h77v-102h-77v-239h-195v239h-75v102h75v205h-159v169h514v-169z" />
    <glyph glyph-name="Thorn" unicode="&#xde;" horiz-adv-x="634" 
d="M611 362q0 -144 -99 -203q-54 -32 -171 -32h-82v-127h-183v715h183v-109h21q92 0 130 -5q61 -7 101 -33q100 -65 100 -206zM422 368q0 49 -32 67q-28 16 -92 16h-39v-167h37q67 0 94 16q32 19 32 68z" />
    <glyph glyph-name="Ugrave" unicode="&#xd9;" horiz-adv-x="780" 
d="M479 791h-125l-131 168h167zM708 290q0 -163 -74.5 -236t-243.5 -73q-180 0 -256 87q-39 45 -52 113q-10 50 -10 148v386h194v-388q0 -100 24 -139q27 -43 100 -43q83 0 107 56q17 41 17 171v343h194v-425z" />
    <glyph glyph-name="Uacute" unicode="&#xda;" horiz-adv-x="780" 
d="M559 959l-131 -168h-125l89 168h167zM708 290q0 -163 -74.5 -236t-243.5 -73q-180 0 -256 87q-39 45 -52 113q-10 50 -10 148v386h194v-388q0 -100 24 -139q27 -43 100 -43q83 0 107 56q17 41 17 171v343h194v-425z" />
    <glyph glyph-name="Ucircumflex" unicode="&#xdb;" horiz-adv-x="780" 
d="M538 790h-75l-81 85l-82 -85h-75l89 168h135zM708 290q0 -163 -74.5 -236t-243.5 -73q-180 0 -256 87q-39 45 -52 113q-10 50 -10 148v386h194v-388q0 -100 24 -139q27 -43 100 -43q83 0 107 56q17 41 17 171v343h194v-425z" />
    <glyph glyph-name="Utilde" unicode="&#x168;" horiz-adv-x="780" 
d="M552 938q-29 -124 -107 -124q-19 0 -37 5l-45 13q-24 7 -33 7q-30 0 -44 -38h-58q27 120 105 120q16 0 44 -8l46 -13q15 -4 28 -4q33 0 43 42h58zM708 290q0 -163 -74.5 -236t-243.5 -73q-180 0 -256 87q-39 45 -52 113q-10 50 -10 148v386h194v-388q0 -100 24 -139
q27 -43 100 -43q83 0 107 56q17 41 17 171v343h194v-425z" />
    <glyph glyph-name="Udieresis" unicode="&#xdc;" horiz-adv-x="780" 
d="M555 882q0 -31 -20 -51t-50 -20q-29 0 -49.5 21t-20.5 50q0 27 21 48t49 21q29 0 49.5 -20t20.5 -49zM364 882q0 -31 -19.5 -51t-49.5 -20q-29 0 -50 21t-21 50q0 27 21.5 48t49.5 21q29 0 49 -20t20 -49zM708 290q0 -163 -74.5 -236t-243.5 -73q-180 0 -256 87
q-39 45 -52 113q-10 50 -10 148v386h194v-388q0 -100 24 -139q27 -43 100 -43q83 0 107 56q17 41 17 171v343h194v-425z" />
    <glyph glyph-name="Umacron" unicode="&#x16a;" horiz-adv-x="780" 
d="M577 827h-380v102h380v-102zM708 290q0 -163 -74.5 -236t-243.5 -73q-180 0 -256 87q-39 45 -52 113q-10 50 -10 148v386h194v-388q0 -100 24 -139q27 -43 100 -43q83 0 107 56q17 41 17 171v343h194v-425z" />
    <glyph glyph-name="Ubreve" unicode="&#x16c;" horiz-adv-x="780" 
d="M538 936q-11 -150 -153 -150t-154 150h64q6 -68 90 -68q86 0 89 68h64zM708 290q0 -163 -74.5 -236t-243.5 -73q-180 0 -256 87q-39 45 -52 113q-10 50 -10 148v386h194v-388q0 -100 24 -139q27 -43 100 -43q83 0 107 56q17 41 17 171v343h194v-425z" />
    <glyph glyph-name="Uring" unicode="&#x16e;" horiz-adv-x="780" 
d="M520 845q0 -55 -38.5 -93.5t-94.5 -38.5q-55 0 -93.5 38t-38.5 94q0 55 38.5 94t93.5 39t94 -39t39 -94zM708 290q0 -163 -74.5 -236t-243.5 -73q-180 0 -256 87q-39 45 -52 113q-10 50 -10 148v386h194v-388q0 -100 24 -139q27 -43 100 -43q83 0 107 56q17 41 17 171
v343h194v-425zM443 845q0 23 -16 39.5t-40 16.5q-23 0 -39.5 -16.5t-16.5 -39.5t16.5 -39.5t39.5 -16.5q24 0 40 16.5t16 39.5z" />
    <glyph glyph-name="Uhungarumlaut" unicode="&#x170;" horiz-adv-x="780" 
d="M601 959l-155 -168h-58l92 168h121zM438 959l-117 -168h-54l55 168h116zM708 290q0 -163 -74.5 -236t-243.5 -73q-180 0 -256 87q-39 45 -52 113q-10 50 -10 148v386h194v-388q0 -100 24 -139q27 -43 100 -43q83 0 107 56q17 41 17 171v343h194v-425z" />
    <glyph glyph-name="Uogonek" unicode="&#x172;" horiz-adv-x="780" 
d="M708 290q0 -221 -144 -281q-49 -20 -49 -63q0 -48 58 -48q30 0 65 13v-114q-47 -15 -114 -15q-47 0 -83 26q-39 29 -39 74q0 62 57 102q-32 -3 -69 -3q-180 0 -256 87q-39 45 -52 113q-10 50 -10 148v386h194v-388q0 -100 24 -139q27 -43 100 -43q83 0 107 56
q17 41 17 171v343h194v-425z" />
    <glyph glyph-name="Wcircumflex" unicode="&#x174;" horiz-adv-x="970" 
d="M645 791h-75l-81 85l-82 -85h-75l89 168h135zM979 715l-202 -715h-181l-88 305q-6 21 -24 96q-8 -34 -24 -96l-87 -305h-181l-202 715h197l82 -342q13 -54 22 -107q8 43 25 107l90 342h157l90 -340q14 -52 21 -94l2 -11l22 105l84 340h197z" />
    <glyph glyph-name="Yacute" unicode="&#xdd;" horiz-adv-x="597" 
d="M440 959l-151 -171h-75l89 171h137zM641 715l-250 -389v-326h-188v326l-251 389h225l96 -184q9 -14 24 -61q5 22 25 61l95 184h224z" />
    <glyph glyph-name="Ycircumflex" unicode="&#x176;" horiz-adv-x="597" 
d="M446 791h-75l-81 85l-82 -85h-75l89 168h135zM641 715l-250 -389v-326h-188v326l-251 389h225l96 -184q9 -14 24 -61q5 22 25 61l95 184h224z" />
    <glyph glyph-name="Ydieresis" unicode="&#x178;" horiz-adv-x="597" 
d="M464 882q0 -31 -20 -51t-50 -20q-29 0 -49.5 21t-20.5 50q0 27 21 48t49 21q29 0 49.5 -20t20.5 -49zM273 882q0 -31 -19.5 -51t-49.5 -20q-29 0 -50 21t-21 50q0 27 21.5 48t49.5 21q29 0 49 -20t20 -49zM641 715l-250 -389v-326h-188v326l-251 389h225l96 -184
q9 -14 24 -61q5 22 25 61l95 184h224z" />
    <glyph glyph-name="Zacute" unicode="&#x179;" horiz-adv-x="677" 
d="M556 959l-131 -168h-125l89 168h167zM675 715l-360 -559h319v-156h-632l361 560h-290v155h602z" />
    <glyph glyph-name="Zcaron" unicode="&#x17d;" horiz-adv-x="677" 
d="M533 955l-89 -168h-135l-89 168h75l82 -85l81 85h75zM675 715l-360 -559h319v-156h-632l361 560h-290v155h602z" />
    <glyph glyph-name="Zdotaccent" unicode="&#x17b;" horiz-adv-x="677" 
d="M449 881q0 -40 -28.5 -68.5t-67.5 -28.5q-40 0 -68 29t-28 68t28 67.5t68 28.5t68 -28t28 -68zM675 715l-360 -559h319v-156h-632l361 560h-290v155h602z" />
    <glyph glyph-name="agrave" unicode="&#xe0;" horiz-adv-x="660" 
d="M433 560h-125l-131 168h167zM593 1h-160v79q-66 -99 -177 -99q-98 0 -157.5 72t-59.5 193q0 120 61.5 191.5t166.5 71.5q109 0 165 -97v81h161v-492zM440 247q0 57 -31 91t-84 34t-83.5 -34t-30.5 -91q0 -58 30.5 -91t83.5 -33t84 33t31 91z" />
    <glyph glyph-name="aacute" unicode="&#xe1;" horiz-adv-x="660" 
d="M493 728l-131 -168h-125l89 168h167zM593 1h-160v79q-66 -99 -177 -99q-98 0 -157.5 72t-59.5 193q0 120 61.5 191.5t166.5 71.5q109 0 165 -97v81h161v-492zM440 247q0 57 -31 91t-84 34t-83.5 -34t-30.5 -91q0 -58 30.5 -91t83.5 -33t84 33t31 91z" />
    <glyph glyph-name="acircumflex" unicode="&#xe2;" horiz-adv-x="660" 
d="M446 560h-75l-81 85l-82 -85h-75l89 168h135zM593 1h-160v79q-66 -99 -177 -99q-98 0 -157.5 72t-59.5 193q0 120 61.5 191.5t166.5 71.5q109 0 165 -97v81h161v-492zM440 247q0 57 -31 91t-84 34t-83.5 -34t-30.5 -91q0 -58 30.5 -91t83.5 -33t84 33t31 91z" />
    <glyph glyph-name="atilde" unicode="&#xe3;" horiz-adv-x="660" 
d="M472 710q-30 -124 -107 -124q-20 0 -37 5l-45 13q-24 7 -33 7q-31 0 -44 -38h-58q27 120 105 120q16 0 44 -8l46 -13q14 -4 28 -4q33 0 43 42h58zM593 1h-160v79q-66 -99 -177 -99q-98 0 -157.5 72t-59.5 193q0 120 61.5 191.5t166.5 71.5q109 0 165 -97v81h161v-492z
M440 247q0 57 -31 91t-84 34t-83.5 -34t-30.5 -91q0 -58 30.5 -91t83.5 -33t84 33t31 91z" />
    <glyph glyph-name="adieresis" unicode="&#xe4;" horiz-adv-x="660" 
d="M495 651q0 -31 -20 -51t-50 -20q-29 0 -49.5 21t-20.5 50q0 27 21 48t49 21q29 0 49.5 -20t20.5 -49zM304 651q0 -31 -19.5 -51t-49.5 -20q-29 0 -50 21t-21 50q0 27 21.5 48t49.5 21q29 0 49 -20t20 -49zM593 1h-160v79q-66 -99 -177 -99q-98 0 -157.5 72t-59.5 193
q0 120 61.5 191.5t166.5 71.5q109 0 165 -97v81h161v-492zM440 247q0 57 -31 91t-84 34t-83.5 -34t-30.5 -91q0 -58 30.5 -91t83.5 -33t84 33t31 91z" />
    <glyph glyph-name="amacron" unicode="&#x101;" horiz-adv-x="660" 
d="M540 596h-380v102h380v-102zM593 1h-160v79q-66 -99 -177 -99q-98 0 -157.5 72t-59.5 193q0 120 61.5 191.5t166.5 71.5q109 0 165 -97v81h161v-492zM440 247q0 57 -31 91t-84 34t-83.5 -34t-30.5 -91q0 -58 30.5 -91t83.5 -33t84 33t31 91z" />
    <glyph glyph-name="abreve" unicode="&#x103;" horiz-adv-x="660" 
d="M433 708q-12 -150 -153 -150q-142 0 -154 150h64q6 -68 90 -68q86 0 89 68h64zM593 1h-160v79q-66 -99 -177 -99q-98 0 -157.5 72t-59.5 193q0 120 61.5 191.5t166.5 71.5q109 0 165 -97v81h161v-492zM440 247q0 57 -31 91t-84 34t-83.5 -34t-30.5 -91q0 -58 30.5 -91
t83.5 -33t84 33t31 91z" />
    <glyph glyph-name="aring" unicode="&#xe5;" horiz-adv-x="660" 
d="M463 669q0 -54 -37.5 -92t-91.5 -38t-92 38t-38 92t38 92t92 38q53 0 91 -38t38 -92zM593 1h-160v79q-66 -99 -177 -99q-98 0 -157.5 72t-59.5 193q0 120 61.5 191.5t166.5 71.5q109 0 165 -97v81h161v-492zM388 669q0 23 -15.5 39t-38.5 16q-22 0 -38.5 -16t-16.5 -39
q0 -22 16.5 -38.5t38.5 -16.5q23 0 38.5 16t15.5 39zM440 247q0 57 -31 91t-84 34t-83.5 -34t-30.5 -91q0 -58 30.5 -91t83.5 -33t84 33t31 91z" />
    <glyph glyph-name="aogonek" unicode="&#x105;" horiz-adv-x="660" 
d="M633 -203q-47 -15 -114 -15q-47 0 -83 26q-39 29 -39 74q0 74 84 119h-48v79q-66 -99 -177 -99q-98 0 -157.5 72t-59.5 193q0 120 61.5 191.5t166.5 71.5q109 0 165 -97v81h161v-492h-16q-26 0 -46.5 -15t-20.5 -40q0 -48 58 -48q30 0 65 13v-114zM440 247q0 57 -31 91
t-84 34t-83.5 -34t-30.5 -91q0 -58 30.5 -91t83.5 -33t84 33t31 91z" />
    <glyph glyph-name="ae" unicode="&#xe6;" horiz-adv-x="910" 
d="M866 212h-375q0 -119 111 -119q81 0 108 58l131 -52q-49 -118 -231 -118q-138 0 -196 78q-57 -74 -184 -74q-95 0 -146.5 43.5t-51.5 119.5q0 77 50.5 122.5t131.5 45.5q83 0 141 -37q0 3 1 7v7q0 91 -124 91q-96 0 -162 -37l-1 128q90 32 180 32q120 0 174 -70
q63 73 173 73q123 0 196.5 -77t73.5 -211v-10zM695 309q-4 42 -32 67.5t-67 25.5q-86 0 -101 -93h200zM354 151q0 63 -79 63q-36 0 -57.5 -17t-21.5 -42q0 -67 72 -67q86 0 86 63z" />
    <glyph glyph-name="cacute" unicode="&#x107;" horiz-adv-x="461" 
d="M453 728l-131 -168h-125l89 168h167zM418 15q-62 -34 -127 -34q-112 0 -182 71q-73 73 -73 194q0 116 72 189.5t185 73.5q72 0 125 -31v-147q-49 43 -98 43q-51 0 -82 -34t-31 -93q0 -56 31.5 -90t85.5 -34q52 0 94 43v-151z" />
    <glyph glyph-name="ccircumflex" unicode="&#x109;" horiz-adv-x="461" 
d="M426 560h-75l-81 85l-82 -85h-75l89 168h135zM418 15q-62 -34 -127 -34q-112 0 -182 71q-73 73 -73 194q0 116 72 189.5t185 73.5q72 0 125 -31v-147q-49 43 -98 43q-51 0 -82 -34t-31 -93q0 -56 31.5 -90t85.5 -34q52 0 94 43v-151z" />
    <glyph glyph-name="ccaron" unicode="&#x10d;" horiz-adv-x="461" 
d="M426 728l-89 -168h-135l-89 168h75l82 -85l81 85h75zM418 15q-62 -34 -127 -34q-112 0 -182 71q-73 73 -73 194q0 116 72 189.5t185 73.5q72 0 125 -31v-147q-49 43 -98 43q-51 0 -82 -34t-31 -93q0 -56 31.5 -90t85.5 -34q52 0 94 43v-151z" />
    <glyph glyph-name="cdotaccent" unicode="&#x10b;" horiz-adv-x="461" 
d="M351 628q0 -31 -20.5 -52t-52.5 -21q-29 0 -50.5 21.5t-21.5 51.5q0 29 22 51t50 22q31 0 52 -21.5t21 -51.5zM418 15q-62 -34 -127 -34q-112 0 -182 71q-73 73 -73 194q0 116 72 189.5t185 73.5q72 0 125 -31v-147q-49 43 -98 43q-51 0 -82 -34t-31 -93q0 -56 31.5 -90
t85.5 -34q52 0 94 43v-151z" />
    <glyph glyph-name="ccedilla" unicode="&#xe7;" horiz-adv-x="461" 
d="M417 -135q0 -102 -124 -102q-64 0 -142 22v68q79 -22 132 -22q42 0 42 35q0 31 -58 31q-17 0 -27 -1v89q-78 13 -131 67q-73 73 -73 194q0 116 72 189.5t185 73.5q72 0 125 -31v-147q-49 43 -98 43q-51 0 -82 -34t-31 -93q0 -56 31.5 -90t85.5 -34q52 0 94 43v-151
q-60 -32 -122 -34v-22h9q112 0 112 -94z" />
    <glyph glyph-name="dcaron" unicode="&#x10f;" horiz-adv-x="659" 
d="M595 0h-160v80q-66 -99 -167 -99q-103 0 -165 71t-62 194q0 119 61.5 191t159.5 72q62 0 100.5 -21.5t71.5 -76.5q-6 42 -6 88v258h167v-757zM441 246q0 57 -31 90.5t-83 33.5t-82.5 -33.5t-30.5 -90.5q0 -58 30 -91t83 -33t83.5 33t30.5 91zM848 756l-91 -246h-135
l44 246h182z" />
    <glyph glyph-name="dcroat" unicode="&#x111;" horiz-adv-x="660" 
d="M691 576h-96v-576h-160v80q-66 -99 -167 -99q-103 0 -165 71t-62 194q0 119 61.5 191t159.5 72q62 0 100.5 -21.5t71.5 -76.5q-6 42 -6 88v77h-117v102h117v79h167v-79h96v-102zM441 246q0 57 -31 90.5t-83 33.5t-82.5 -33.5t-30.5 -90.5q0 -58 30 -91t83 -33t83.5 33
t30.5 91z" />
    <glyph glyph-name="eth" unicode="&#xf0;" horiz-adv-x="623" 
d="M587 268q0 -135 -72.5 -211t-203.5 -76q-118 0 -197 74q-78 71 -78 172q0 102 74 173.5t179 71.5q57 0 109 -33q-42 70 -107 124l-145 -67l-34 62l118 52q-52 31 -79 44l58 102q68 -30 153 -87l153 71l35 -63l-128 -58q165 -156 165 -351zM414 231q0 49 -27.5 77.5
t-75.5 28.5t-75.5 -28.5t-27.5 -77.5q0 -48 27.5 -76.5t75.5 -28.5t75.5 28.5t27.5 76.5z" />
    <glyph glyph-name="egrave" unicode="&#xe8;" horiz-adv-x="611" 
d="M383 560h-125l-131 168h167zM575 212h-375q2 -119 111 -119q79 0 108 59l131 -53q-49 -118 -229 -118q-132 0 -210 74q-75 71 -75 186q0 114 77 191t198 77t192.5 -77t71.5 -212v-8zM404 310q-4 42 -32 67.5t-67 25.5q-86 0 -101 -93h200z" />
    <glyph glyph-name="eacute" unicode="&#xe9;" horiz-adv-x="611" 
d="M483 728l-131 -168h-125l89 168h167zM575 212h-375q2 -119 111 -119q79 0 108 59l131 -53q-49 -118 -229 -118q-132 0 -210 74q-75 71 -75 186q0 114 77 191t198 77t192.5 -77t71.5 -212v-8zM404 310q-4 42 -32 67.5t-67 25.5q-86 0 -101 -93h200z" />
    <glyph glyph-name="ecircumflex" unicode="&#xea;" horiz-adv-x="611" 
d="M466 560h-75l-81 85l-82 -85h-75l89 168h135zM575 212h-375q2 -119 111 -119q79 0 108 59l131 -53q-49 -118 -229 -118q-132 0 -210 74q-75 71 -75 186q0 114 77 191t198 77t192.5 -77t71.5 -212v-8zM404 310q-4 42 -32 67.5t-67 25.5q-86 0 -101 -93h200z" />
    <glyph glyph-name="ecaron" unicode="&#x11b;" horiz-adv-x="611" 
d="M484 728l-89 -168h-135l-89 168h75l82 -85l81 85h75zM575 212h-375q2 -119 111 -119q79 0 108 59l131 -53q-49 -118 -229 -118q-132 0 -210 74q-75 71 -75 186q0 114 77 191t198 77t192.5 -77t71.5 -212v-8zM404 310q-4 42 -32 67.5t-67 25.5q-86 0 -101 -93h200z" />
    <glyph glyph-name="edieresis" unicode="&#xeb;" horiz-adv-x="611" 
d="M471 651q0 -31 -20 -51t-50 -20q-29 0 -49.5 21t-20.5 50q0 27 21 48t49 21q29 0 49.5 -20t20.5 -49zM280 651q0 -31 -19.5 -51t-49.5 -20q-29 0 -50 21t-21 50q0 27 21.5 48t49.5 21q29 0 49 -20t20 -49zM575 212h-375q2 -119 111 -119q79 0 108 59l131 -53
q-49 -118 -229 -118q-132 0 -210 74q-75 71 -75 186q0 114 77 191t198 77t192.5 -77t71.5 -212v-8zM404 310q-4 42 -32 67.5t-67 25.5q-86 0 -101 -93h200z" />
    <glyph glyph-name="emacron" unicode="&#x113;" horiz-adv-x="611" 
d="M498 596h-380v102h380v-102zM575 212h-375q2 -119 111 -119q79 0 108 59l131 -53q-49 -118 -229 -118q-132 0 -210 74q-75 71 -75 186q0 114 77 191t198 77t192.5 -77t71.5 -212v-8zM404 310q-4 42 -32 67.5t-67 25.5q-86 0 -101 -93h200z" />
    <glyph glyph-name="ebreve" unicode="&#x115;" horiz-adv-x="611" 
d="M458 708q-12 -150 -153 -150q-142 0 -154 150h64q6 -68 90 -68q86 0 89 68h64zM575 212h-375q2 -119 111 -119q79 0 108 59l131 -53q-49 -118 -229 -118q-132 0 -210 74q-75 71 -75 186q0 114 77 191t198 77t192.5 -77t71.5 -212v-8zM404 310q-4 42 -32 67.5t-67 25.5
q-86 0 -101 -93h200z" />
    <glyph glyph-name="edotaccent" unicode="&#x117;" horiz-adv-x="611" 
d="M393 628q0 -31 -20.5 -52t-52.5 -21q-29 0 -50.5 21.5t-21.5 51.5q0 29 22 51t50 22q31 0 52 -21.5t21 -51.5zM575 212h-375q2 -119 111 -119q79 0 108 59l131 -53q-49 -118 -229 -118q-132 0 -210 74q-75 71 -75 186q0 114 77 191t198 77t192.5 -77t71.5 -212v-8z
M404 310q-4 42 -32 67.5t-67 25.5q-86 0 -101 -93h200z" />
    <glyph glyph-name="eogonek" unicode="&#x119;" horiz-adv-x="611" 
d="M575 212h-375q2 -119 111 -119q79 0 108 59l131 -53q-25 -61 -93 -92q-57 -26 -57 -61q0 -48 58 -48q30 0 65 13v-114q-47 -15 -114 -15q-47 0 -83 26q-39 29 -39 74q0 60 53 99h-19q-132 0 -210 74q-75 71 -75 186q0 114 77 191t198 77t192.5 -77t71.5 -212v-8zM404 310
q-4 42 -32 67.5t-67 25.5q-86 0 -101 -93h200z" />
    <glyph glyph-name="gcircumflex" unicode="&#x11d;" horiz-adv-x="660" 
d="M442 560h-75l-81 85l-82 -85h-75l89 168h135zM593 1q0 -219 -279 -219q-117 0 -181.5 43.5t-68.5 120.5h180q8 -49 83 -49q64 0 84 36q15 27 15 105v45q-55 -92 -171 -92q-97 0 -156.5 70t-59.5 189q0 118 61.5 188.5t166.5 70.5q109 0 165 -95v79h161v-492zM440 248
q0 57 -30.5 89.5t-84.5 32.5t-85 -33t-31 -89t31 -89t85 -33t84.5 32.5t30.5 89.5z" />
    <glyph glyph-name="gbreve" unicode="&#x11f;" horiz-adv-x="660" 
d="M456 708q-12 -150 -153 -150q-142 0 -154 150h64q6 -68 90 -68q86 0 89 68h64zM593 1q0 -219 -279 -219q-117 0 -181.5 43.5t-68.5 120.5h180q8 -49 83 -49q64 0 84 36q15 27 15 105v45q-55 -92 -171 -92q-97 0 -156.5 70t-59.5 189q0 118 61.5 188.5t166.5 70.5
q109 0 165 -95v79h161v-492zM440 248q0 57 -30.5 89.5t-84.5 32.5t-85 -33t-31 -89t31 -89t85 -33t84.5 32.5t30.5 89.5z" />
    <glyph glyph-name="gdotaccent" unicode="&#x121;" horiz-adv-x="660" 
d="M362 628q0 -31 -20.5 -52t-52.5 -21q-29 0 -50.5 21.5t-21.5 51.5q0 29 22 51t50 22q31 0 52 -21.5t21 -51.5zM593 1q0 -219 -279 -219q-117 0 -181.5 43.5t-68.5 120.5h180q8 -49 83 -49q64 0 84 36q15 27 15 105v45q-55 -92 -171 -92q-97 0 -156.5 70t-59.5 189
q0 118 61.5 188.5t166.5 70.5q109 0 165 -95v79h161v-492zM440 248q0 57 -30.5 89.5t-84.5 32.5t-85 -33t-31 -89t31 -89t85 -33t84.5 32.5t30.5 89.5z" />
    <glyph glyph-name="gcommaaccent" unicode="&#x123;" horiz-adv-x="660" 
d="M476 832l-104 -306h-182l151 306h135zM593 1q0 -219 -279 -219q-117 0 -181.5 43.5t-68.5 120.5h180q8 -49 83 -49q64 0 84 36q15 27 15 105v45q-55 -92 -171 -92q-97 0 -156.5 70t-59.5 189q0 118 61.5 188.5t166.5 70.5q109 0 165 -95v79h161v-492zM440 248
q0 57 -30.5 89.5t-84.5 32.5t-85 -33t-31 -89t31 -89t85 -33t84.5 32.5t30.5 89.5z" />
    <glyph glyph-name="hcircumflex" unicode="&#x125;" horiz-adv-x="653" 
d="M485 788h-75l-81 85l-82 -85h-75l89 168h135zM594 0h-174v264q0 113 -81 113q-57 0 -80.5 -41.5t-23.5 -128.5v-207h-171v757h171v-266q0 -47 -6 -89q65 107 183 107q99 0 146 -60q36 -46 36 -167v-282z" />
    <glyph glyph-name="hbar" unicode="&#x127;" horiz-adv-x="653" 
d="M594 0h-174v264q0 113 -81 113q-57 0 -80.5 -41.5t-23.5 -128.5v-207h-171v576h-103v102h103v79h171v-79h106v-102h-106v-85q0 -47 -6 -89q65 107 183 107q99 0 146 -60q36 -46 36 -167v-282z" />
    <glyph glyph-name="dotlessi" unicode="&#x131;" 
d="M243 0h-174v493h174v-493z" />
    <glyph glyph-name="igrave" unicode="&#xec;" 
d="M233 560h-125l-131 168h167zM243 0h-174v493h174v-493z" />
    <glyph glyph-name="iacute" unicode="&#xed;" 
d="M342 728l-131 -168h-125l89 168h167zM243 0h-174v493h174v-493z" />
    <glyph glyph-name="ibreve" unicode="&#x12d;" 
d="M313 708q-12 -150 -153 -150q-142 0 -154 150h64q6 -68 90 -68q86 0 89 68h64zM243 0h-174v493h174v-493z" />
    <glyph glyph-name="icircumflex" unicode="&#xee;" 
d="M316 560h-75l-81 85l-82 -85h-75l89 168h135zM243 0h-174v493h174v-493z" />
    <glyph glyph-name="itilde" unicode="&#x129;" 
d="M319 710q-30 -124 -107 -124q-20 0 -37 5l-45 13q-24 7 -33 7q-31 0 -44 -38h-58q27 120 105 120q16 0 44 -8l46 -13q14 -4 28 -4q33 0 43 42h58zM243 0h-174v493h174v-493z" />
    <glyph glyph-name="idieresis" unicode="&#xef;" 
d="M321 651q0 -31 -20 -51t-50 -20q-29 0 -49.5 21t-20.5 50q0 27 21 48t49 21q29 0 49.5 -20t20.5 -49zM130 651q0 -31 -19.5 -51t-49.5 -20q-29 0 -50 21t-21 50q0 27 21.5 48t49.5 21q29 0 49 -20t20 -49zM243 0h-174v493h174v-493z" />
    <glyph glyph-name="imacron" unicode="&#x12b;" 
d="M345 596h-380v102h380v-102zM243 0h-174v493h174v-493z" />
    <glyph glyph-name="iogonek" unicode="&#x12f;" 
d="M252 647q0 -40 -28.5 -68.5t-67.5 -28.5q-40 0 -68 29t-28 68t28 67.5t68 28.5t68 -28t28 -68zM274 -203q-47 -15 -114 -15q-47 0 -83 26q-39 29 -39 74q0 73 83 118h-52v493h174v-493h-25q-26 0 -46 -13q-21 -16 -21 -41q0 -48 58 -48q30 0 65 13v-114z" />
    <glyph glyph-name="jcircumflex" unicode="&#x135;" 
d="M316 560h-75l-81 85l-82 -85h-75l89 168h135zM243 -218h-174v711h174v-711z" />
    <glyph glyph-name="kcommaaccent" unicode="&#x137;" horiz-adv-x="641" 
d="M651 0h-229l-186 219v-219h-171v757h171v-479l179 215h216l-222 -237zM420 -39l-151 -306h-135l104 306h182z" />
    <glyph glyph-name="lacute" unicode="&#x13a;" 
d="M343 960l-131 -168h-125l89 168h167zM243 0h-174v757h174v-757z" />
    <glyph glyph-name="lcaron" unicode="&#x13e;" 
d="M243 0h-174v757h174v-757zM488 756l-91 -246h-135l44 246h182z" />
    <glyph glyph-name="lcommaaccent" unicode="&#x13c;" 
d="M243 0h-174v757h174v-757zM247 -39l-151 -306h-135l104 306h182z" />
    <glyph glyph-name="lslash" unicode="&#x142;" horiz-adv-x="332" 
d="M320 479l-72 -54v-425h-164v314l-72 -55v138l72 55v305h164v-193l72 54v-139z" />
    <glyph glyph-name="ldot" unicode="&#x140;" horiz-adv-x="469" 
d="M455 352q0 -42 -29 -70.5t-70 -28.5t-69.5 29t-28.5 70t28 69.5t70 28.5q41 0 70 -28.5t29 -69.5zM243 0h-174v757h174v-757z" />
    <glyph glyph-name="nacute" unicode="&#x144;" horiz-adv-x="653" 
d="M486 728l-131 -168h-125l89 168h167zM594 0h-174v264q0 113 -81 113q-57 0 -80.5 -41.5t-23.5 -128.5v-207h-171v493h159v-100q67 116 189 116q99 0 146 -60q36 -46 36 -167v-282z" />
    <glyph glyph-name="ncaron" unicode="&#x148;" horiz-adv-x="653" 
d="M479 728l-89 -168h-135l-89 168h75l82 -85l81 85h75zM594 0h-174v264q0 113 -81 113q-57 0 -80.5 -41.5t-23.5 -128.5v-207h-171v493h159v-100q67 116 189 116q99 0 146 -60q36 -46 36 -167v-282z" />
    <glyph glyph-name="ntilde" unicode="&#xf1;" horiz-adv-x="653" 
d="M483 710q-30 -124 -107 -124q-20 0 -37 5l-45 13q-24 7 -33 7q-31 0 -44 -38h-58q27 120 105 120q16 0 44 -8l46 -13q14 -4 28 -4q33 0 43 42h58zM594 0h-174v264q0 113 -81 113q-57 0 -80.5 -41.5t-23.5 -128.5v-207h-171v493h159v-100q67 116 189 116q99 0 146 -60
q36 -46 36 -167v-282z" />
    <glyph glyph-name="ncommaaccent" unicode="&#x146;" horiz-adv-x="653" 
d="M594 0h-174v264q0 113 -81 113q-57 0 -80.5 -41.5t-23.5 -128.5v-207h-171v493h159v-100q67 116 189 116q99 0 146 -60q36 -46 36 -167v-282zM427 -39l-151 -306h-135l104 306h182z" />
    <glyph glyph-name="ograve" unicode="&#xf2;" horiz-adv-x="623" 
d="M403 560h-125l-131 168h167zM587 245q0 -110 -80 -187t-196 -77q-117 0 -196 77t-79 187t79.5 187t195.5 77t196 -77t80 -187zM414 245q0 55 -27.5 87t-75.5 32t-75.5 -32t-27.5 -87t27.5 -86.5t75.5 -31.5t75.5 31.5t27.5 86.5z" />
    <glyph glyph-name="oacute" unicode="&#xf3;" horiz-adv-x="623" 
d="M473 728l-131 -168h-125l89 168h167zM587 245q0 -110 -80 -187t-196 -77q-117 0 -196 77t-79 187t79.5 187t195.5 77t196 -77t80 -187zM414 245q0 55 -27.5 87t-75.5 32t-75.5 -32t-27.5 -87t27.5 -86.5t75.5 -31.5t75.5 31.5t27.5 86.5z" />
    <glyph glyph-name="ocircumflex" unicode="&#xf4;" horiz-adv-x="623" 
d="M466 560h-75l-81 85l-82 -85h-75l89 168h135zM587 245q0 -110 -80 -187t-196 -77q-117 0 -196 77t-79 187t79.5 187t195.5 77t196 -77t80 -187zM414 245q0 55 -27.5 87t-75.5 32t-75.5 -32t-27.5 -87t27.5 -86.5t75.5 -31.5t75.5 31.5t27.5 86.5z" />
    <glyph glyph-name="otilde" unicode="&#xf5;" horiz-adv-x="623" 
d="M472 710q-30 -124 -107 -124q-20 0 -37 5l-45 13q-24 7 -33 7q-31 0 -44 -38h-58q27 120 105 120q16 0 44 -8l46 -13q14 -4 28 -4q33 0 43 42h58zM587 245q0 -110 -80 -187t-196 -77q-117 0 -196 77t-79 187t79.5 187t195.5 77t196 -77t80 -187zM414 245q0 55 -27.5 87
t-75.5 32t-75.5 -32t-27.5 -87t27.5 -86.5t75.5 -31.5t75.5 31.5t27.5 86.5z" />
    <glyph glyph-name="odieresis" unicode="&#xf6;" horiz-adv-x="623" 
d="M477 651q0 -31 -20 -51t-50 -20q-29 0 -49.5 21t-20.5 50q0 27 21 48t49 21q29 0 49.5 -20t20.5 -49zM286 651q0 -31 -19.5 -51t-49.5 -20q-29 0 -50 21t-21 50q0 27 21.5 48t49.5 21q29 0 49 -20t20 -49zM587 245q0 -110 -80 -187t-196 -77q-117 0 -196 77t-79 187
t79.5 187t195.5 77t196 -77t80 -187zM414 245q0 55 -27.5 87t-75.5 32t-75.5 -32t-27.5 -87t27.5 -86.5t75.5 -31.5t75.5 31.5t27.5 86.5z" />
    <glyph glyph-name="omacron" unicode="&#x14d;" horiz-adv-x="623" 
d="M494 596h-380v102h380v-102zM587 245q0 -110 -80 -187t-196 -77q-117 0 -196 77t-79 187t79.5 187t195.5 77t196 -77t80 -187zM414 245q0 55 -27.5 87t-75.5 32t-75.5 -32t-27.5 -87t27.5 -86.5t75.5 -31.5t75.5 31.5t27.5 86.5z" />
    <glyph glyph-name="obreve" unicode="&#x14f;" horiz-adv-x="623" 
d="M463 708q-12 -150 -153 -150q-142 0 -154 150h64q6 -68 90 -68q86 0 89 68h64zM587 245q0 -110 -80 -187t-196 -77q-117 0 -196 77t-79 187t79.5 187t195.5 77t196 -77t80 -187zM414 245q0 55 -27.5 87t-75.5 32t-75.5 -32t-27.5 -87t27.5 -86.5t75.5 -31.5t75.5 31.5
t27.5 86.5z" />
    <glyph glyph-name="ohungarumlaut" unicode="&#x151;" horiz-adv-x="623" 
d="M531 728l-155 -168h-58l92 168h121zM368 728l-117 -168h-54l55 168h116zM587 245q0 -110 -80 -187t-196 -77q-117 0 -196 77t-79 187t79.5 187t195.5 77t196 -77t80 -187zM414 245q0 55 -27.5 87t-75.5 32t-75.5 -32t-27.5 -87t27.5 -86.5t75.5 -31.5t75.5 31.5
t27.5 86.5z" />
    <glyph glyph-name="oslash" unicode="&#xf8;" horiz-adv-x="623" 
d="M587 246q0 -110 -80.5 -187t-195.5 -77q-102 0 -164 52l-57 -57l-41 41l54 55q-67 82 -67 173q0 110 80 187t195 77q95 0 168 -54l65 67l42 -37l-64 -68q65 -68 65 -172zM379 350q-27 21 -69 21q-48 0 -77.5 -34.5t-29.5 -92.5q0 -39 12 -62zM421 247q0 32 -11 63
l-165 -167q25 -23 68 -23q49 0 78.5 34t29.5 93z" />
    <glyph glyph-name="oe" unicode="&#x153;" horiz-adv-x="981" 
d="M946 207l-374 -2q0 -50 30.5 -79t81.5 -29q79 0 107 60l131 -54q-49 -122 -232 -122q-138 0 -196 78q-56 -78 -190 -78q-116 0 -192 72.5t-76 186.5q0 116 77.5 193t189.5 77q127 0 194 -79q60 80 183 80q122 0 194 -78t72 -213v-13zM775 307q-4 42 -32 67.5t-67 25.5
q-86 0 -101 -95zM423 245q0 60 -29 95t-78 35q-50 0 -79 -35t-29 -95t29 -94.5t79 -34.5t78.5 34.5t28.5 94.5z" />
    <glyph glyph-name="racute" unicode="&#x155;" horiz-adv-x="447" 
d="M353 728l-131 -168h-125l89 168h167zM447 501l-17 -158q-35 10 -60 10q-132 0 -132 -149v-204h-173v493h164v-116q50 127 169 127q18 0 49 -3z" />
    <glyph glyph-name="rcommaaccent" unicode="&#x157;" horiz-adv-x="447" 
d="M447 501l-17 -158q-35 10 -60 10q-132 0 -132 -149v-204h-173v493h164v-116q50 127 169 127q18 0 49 -3zM253 -39l-151 -306h-135l104 306h182z" />
    <glyph glyph-name="rcaron" unicode="&#x159;" horiz-adv-x="447" 
d="M376 728l-89 -168h-135l-89 168h75l82 -85l81 85h75zM447 501l-17 -158q-35 10 -60 10q-132 0 -132 -149v-204h-173v493h164v-116q50 127 169 127q18 0 49 -3z" />
    <glyph glyph-name="sacute" unicode="&#x15b;" horiz-adv-x="484" 
d="M424 728l-131 -168h-125l89 168h167zM455 150q0 -75 -57.5 -122t-154.5 -47q-127 0 -225 60l36 133q78 -69 176 -69q67 0 67 41q0 27 -28 38l-77 20q-149 39 -149 147q0 70 53 114t147 44q95 0 197 -45l-36 -120q-70 48 -142 48q-60 0 -60 -36q0 -22 31 -33l82 -24
q72 -22 105 -55q35 -36 35 -94z" />
    <glyph glyph-name="scircumflex" unicode="&#x15d;" horiz-adv-x="484" 
d="M416 560h-75l-81 85l-82 -85h-75l89 168h135zM455 150q0 -75 -57.5 -122t-154.5 -47q-127 0 -225 60l36 133q78 -69 176 -69q67 0 67 41q0 27 -28 38l-77 20q-149 39 -149 147q0 70 53 114t147 44q95 0 197 -45l-36 -120q-70 48 -142 48q-60 0 -60 -36q0 -22 31 -33
l82 -24q72 -22 105 -55q35 -36 35 -94z" />
    <glyph glyph-name="scaron" unicode="&#x161;" horiz-adv-x="484" 
d="M402 728l-89 -168h-135l-89 168h75l82 -85l81 85h75zM455 150q0 -75 -57.5 -122t-154.5 -47q-127 0 -225 60l36 133q78 -69 176 -69q67 0 67 41q0 27 -28 38l-77 20q-149 39 -149 147q0 70 53 114t147 44q95 0 197 -45l-36 -120q-70 48 -142 48q-60 0 -60 -36
q0 -22 31 -33l82 -24q72 -22 105 -55q35 -36 35 -94z" />
    <glyph glyph-name="scedilla" unicode="&#x15f;" horiz-adv-x="484" 
d="M455 150q0 -70 -50.5 -116t-137.5 -52v-23h9q112 0 112 -94q0 -102 -124 -102q-64 0 -142 22v68q79 -22 132 -22q42 0 42 35q0 31 -58 31q-17 0 -27 -1v86q-107 6 -193 59l36 133q78 -69 176 -69q67 0 67 41q0 27 -28 38l-77 20q-149 39 -149 147q0 70 53 114t147 44
q95 0 197 -45l-36 -120q-70 48 -142 48q-60 0 -60 -36q0 -22 31 -33l82 -24q72 -22 105 -55q35 -36 35 -94z" />
    <glyph glyph-name="scommaaccent" unicode="&#x219;" horiz-adv-x="484" 
d="M455 150q0 -75 -57.5 -122t-154.5 -47q-127 0 -225 60l36 133q78 -69 176 -69q67 0 67 41q0 27 -28 38l-77 20q-149 39 -149 147q0 70 53 114t147 44q95 0 197 -45l-36 -120q-70 48 -142 48q-60 0 -60 -36q0 -22 31 -33l82 -24q72 -22 105 -55q35 -36 35 -94zM340 -39
l-151 -306h-135l104 306h182z" />
    <glyph glyph-name="germandbls" unicode="&#xdf;" horiz-adv-x="660" 
d="M625 230q0 -114 -68.5 -177.5t-197.5 -63.5h-29q-18 1 -26 1v130q16 -1 30 -1q118 0 118 123q0 121 -130 121h-6q-6 -1 -12 -1v110h4q116 0 116 89q0 37 -23.5 58t-63.5 21q-65 0 -84 -44q-15 -34 -15 -138v-458h-171v502q0 69 8 106q11 49 42 84q66 74 207 74
q123 0 190.5 -51t67.5 -140q0 -116 -121 -149q77 -8 120.5 -59.5t43.5 -136.5z" />
    <glyph glyph-name="tcaron" unicode="&#x165;" horiz-adv-x="353" 
d="M336 370h-74v-370h-171v370h-74v123h74v147h171v-147h74v-123zM508 756l-91 -246h-135l44 246h182z" />
    <glyph glyph-name="tcommaaccent" unicode="&#x163;" horiz-adv-x="353" 
d="M336 370h-74v-370h-171v370h-74v123h74v147h171v-147h74v-123zM270 -39l-151 -306h-135l104 306h182z" />
    <glyph glyph-name="tcommaaccent" unicode="&#x21b;" horiz-adv-x="353" 
d="M336 370h-74v-370h-171v370h-74v123h74v147h171v-147h74v-123zM270 -39l-151 -306h-135l104 306h182z" />
    <glyph glyph-name="tcedilla" unicode="&#xf6c2;" horiz-adv-x="353" 
d="M336 370h-74v-370h-58v-41h9q112 0 112 -94q0 -102 -124 -102q-64 0 -142 22v68q79 -22 132 -22q42 0 42 35q0 31 -58 31q-17 0 -27 -1v104h-57v370h-74v123h74v147h171v-147h74v-123z" />
    <glyph glyph-name="tbar" unicode="&#x167;" horiz-adv-x="353" 
d="M336 370h-74v-46h60v-102h-60v-222h-171v222h-61v102h61v46h-74v123h74v147h171v-147h74v-123z" />
    <glyph glyph-name="thorn" unicode="&#xfe;" horiz-adv-x="660" 
d="M619 245q0 -119 -61.5 -191.5t-159.5 -72.5q-62 0 -101 22t-71 77q5 -32 5 -88v-210h-166v975h166v-264q0 -52 -6 -83q68 99 167 99q103 0 165 -71t62 -193zM446 245q0 58 -30.5 91t-83.5 33t-83 -33t-30 -91q0 -57 30.5 -90.5t82.5 -33.5t83 33.5t31 90.5z" />
    <glyph glyph-name="ugrave" unicode="&#xf9;" horiz-adv-x="631" 
d="M413 560h-125l-131 168h167zM570 241q0 -71 -8 -105q-12 -51 -51 -90q-65 -65 -196 -65q-129 0 -197 65q-37 36 -50 87q-8 36 -8 108v252h166v-263q0 -60 19 -87q20 -30 68 -30t68 30q19 27 19 87v263h170v-252z" />
    <glyph glyph-name="uacute" unicode="&#xfa;" horiz-adv-x="631" 
d="M473 728l-131 -168h-125l89 168h167zM570 241q0 -71 -8 -105q-12 -51 -51 -90q-65 -65 -196 -65q-129 0 -197 65q-37 36 -50 87q-8 36 -8 108v252h166v-263q0 -60 19 -87q20 -30 68 -30t68 30q19 27 19 87v263h170v-252z" />
    <glyph glyph-name="ucircumflex" unicode="&#xfb;" horiz-adv-x="631" 
d="M468 560h-75l-81 85l-82 -85h-75l89 168h135zM570 241q0 -71 -8 -105q-12 -51 -51 -90q-65 -65 -196 -65q-129 0 -197 65q-37 36 -50 87q-8 36 -8 108v252h166v-263q0 -60 19 -87q20 -30 68 -30t68 30q19 27 19 87v263h170v-252z" />
    <glyph glyph-name="utilde" unicode="&#x169;" horiz-adv-x="631" 
d="M468 710q-30 -124 -107 -124q-20 0 -37 5l-45 13q-24 7 -33 7q-31 0 -44 -38h-58q27 120 105 120q16 0 44 -8l46 -13q14 -4 28 -4q33 0 43 42h58zM570 241q0 -71 -8 -105q-12 -51 -51 -90q-65 -65 -196 -65q-129 0 -197 65q-37 36 -50 87q-8 36 -8 108v252h166v-263
q0 -60 19 -87q20 -30 68 -30t68 30q19 27 19 87v263h170v-252z" />
    <glyph glyph-name="udieresis" unicode="&#xfc;" horiz-adv-x="631" 
d="M481 651q0 -31 -20 -51t-50 -20q-29 0 -49.5 21t-20.5 50q0 27 21 48t49 21q29 0 49.5 -20t20.5 -49zM290 651q0 -31 -19.5 -51t-49.5 -20q-29 0 -50 21t-21 50q0 27 21.5 48t49.5 21q29 0 49 -20t20 -49zM570 241q0 -71 -8 -105q-12 -51 -51 -90q-65 -65 -196 -65
q-129 0 -197 65q-37 36 -50 87q-8 36 -8 108v252h166v-263q0 -60 19 -87q20 -30 68 -30t68 30q19 27 19 87v263h170v-252z" />
    <glyph glyph-name="umacron" unicode="&#x16b;" horiz-adv-x="631" 
d="M495 596h-380v102h380v-102zM570 241q0 -71 -8 -105q-12 -51 -51 -90q-65 -65 -196 -65q-129 0 -197 65q-37 36 -50 87q-8 36 -8 108v252h166v-263q0 -60 19 -87q20 -30 68 -30t68 30q19 27 19 87v263h170v-252z" />
    <glyph glyph-name="ubreve" unicode="&#x16d;" horiz-adv-x="631" 
d="M462 708q-12 -150 -153 -150q-142 0 -154 150h64q6 -68 90 -68q86 0 89 68h64zM570 241q0 -71 -8 -105q-12 -51 -51 -90q-65 -65 -196 -65q-129 0 -197 65q-37 36 -50 87q-8 36 -8 108v252h166v-263q0 -60 19 -87q20 -30 68 -30t68 30q19 27 19 87v263h170v-252z" />
    <glyph glyph-name="uring" unicode="&#x16f;" horiz-adv-x="631" 
d="M442 623q0 -55 -38.5 -93.5t-94.5 -38.5t-94 38t-38 94q0 55 38.5 94t93.5 39t94 -39t39 -94zM570 241q0 -71 -8 -105q-12 -51 -51 -90q-65 -65 -196 -65q-129 0 -197 65q-37 36 -50 87q-8 36 -8 108v252h166v-263q0 -60 19 -87q20 -30 68 -30t68 30q19 27 19 87v263h170
v-252zM365 623q0 23 -16.5 39.5t-39.5 16.5t-39.5 -16.5t-16.5 -39.5t16.5 -39.5t39.5 -16.5t39.5 16.5t16.5 39.5z" />
    <glyph glyph-name="uhungarumlaut" unicode="&#x171;" horiz-adv-x="631" 
d="M531 728l-155 -168h-58l92 168h121zM368 728l-117 -168h-54l55 168h116zM570 241q0 -71 -8 -105q-12 -51 -51 -90q-65 -65 -196 -65q-129 0 -197 65q-37 36 -50 87q-8 36 -8 108v252h166v-263q0 -60 19 -87q20 -30 68 -30t68 30q19 27 19 87v263h170v-252z" />
    <glyph glyph-name="uogonek" unicode="&#x173;" horiz-adv-x="631" 
d="M570 241q0 -71 -8 -105q-12 -51 -51 -90q-21 -21 -54 -38q-55 -28 -55 -62q0 -48 58 -48q30 0 65 13v-114q-47 -15 -114 -15q-47 0 -83 26q-39 29 -39 74q0 60 54 100q-14 -1 -28 -1q-129 0 -197 65q-37 36 -50 87q-8 36 -8 108v252h166v-263q0 -60 19 -87q20 -30 68 -30
t68 30q19 27 19 87v263h170v-252z" />
    <glyph glyph-name="wcircumflex" unicode="&#x175;" horiz-adv-x="803" 
d="M563 560h-75l-81 85l-82 -85h-75l89 168h135zM824 493l-207 -493h-123l-73 223q-8 26 -19 77q-9 -43 -20 -77l-73 -223h-123l-206 493h179l74 -218q14 -42 21 -77q4 22 22 77l73 218h105l73 -218q8 -23 22 -77q5 29 21 77l74 218h180z" />
    <glyph glyph-name="yacute" unicode="&#xfd;" horiz-adv-x="532" 
d="M407 730l-151 -171h-75l89 171h137zM541 493l-310 -711h-194l139 293l-199 418h193l69 -178q8 -20 23 -78q8 41 23 78l70 178h186z" />
    <glyph glyph-name="ycircumflex" unicode="&#x177;" horiz-adv-x="532" 
d="M424 560h-75l-81 85l-82 -85h-75l89 168h135zM541 493l-310 -711h-194l139 293l-199 418h193l69 -178q8 -20 23 -78q8 41 23 78l70 178h186z" />
    <glyph glyph-name="ydieresis" unicode="&#xff;" horiz-adv-x="532" 
d="M431 651q0 -31 -20 -51t-50 -20q-29 0 -49.5 21t-20.5 50q0 27 21 48t49 21q29 0 49.5 -20t20.5 -49zM240 651q0 -31 -19.5 -51t-49.5 -20q-29 0 -50 21t-21 50q0 27 21.5 48t49.5 21q29 0 49 -20t20 -49zM541 493l-310 -711h-194l139 293l-199 418h193l69 -178
q8 -20 23 -78q8 41 23 78l70 178h186z" />
    <glyph glyph-name="zacute" unicode="&#x17a;" horiz-adv-x="542" 
d="M433 728l-131 -168h-125l89 168h167zM522 493l-262 -359h240v-134h-499l252 366h-222v127h491z" />
    <glyph glyph-name="zcaron" unicode="&#x17e;" horiz-adv-x="542" 
d="M434 728l-89 -168h-135l-89 168h75l82 -85l81 85h75zM522 493l-262 -359h240v-134h-500l253 366h-222v127h491z" />
    <glyph glyph-name="zdotaccent" unicode="&#x17c;" horiz-adv-x="542" 
d="M361 647q0 -40 -28.5 -68.5t-67.5 -28.5q-40 0 -68 29t-28 68t28 67.5t68 28.5t68 -28t28 -68zM522 493l-262 -359h240v-134h-499l252 366h-222v127h491z" />
    <glyph glyph-name="IJ" unicode="&#x132;" horiz-adv-x="862" 
d="M784 252q0 -116 -31 -171q-57 -100 -182 -100q-135 0 -210 114l119 108q9 -66 61 -66q33 0 43 47q6 32 6 138v393h194v-463zM278 0h-197v715h197v-715z" />
    <glyph glyph-name="ij" unicode="&#x133;" horiz-adv-x="612" 
d="M533 647q0 -40 -28.5 -68.5t-67.5 -28.5q-40 0 -68 29t-28 68t28 67.5t68 28.5t68 -28t28 -68zM252 647q0 -40 -28.5 -68.5t-67.5 -28.5q-40 0 -68 29t-28 68t28 67.5t68 28.5t68 -28t28 -68zM524 -218h-174v711h174v-711zM243 0h-174v493h174v-493z" />
    <glyph glyph-name="acute" unicode="&#xb4;" horiz-adv-x="623" 
d="M483 728l-131 -168h-125l89 168h167z" />
    <glyph glyph-name="circumflex" unicode="&#x2c6;" horiz-adv-x="500" 
d="M406 560h-75l-81 85l-82 -85h-75l89 168h135z" />
    <glyph glyph-name="caron" unicode="&#x2c7;" horiz-adv-x="500" 
d="M406 728l-89 -168h-135l-89 168h75l82 -85l81 85h75z" />
    <glyph glyph-name="tilde" unicode="&#x2dc;" horiz-adv-x="500" 
d="M412 710q-30 -124 -107 -124q-20 0 -37 5l-45 13q-24 7 -33 7q-31 0 -44 -38h-58q27 120 105 120q16 0 44 -8l46 -13q14 -4 28 -4q33 0 43 42h58z" />
    <glyph glyph-name="dieresis" unicode="&#xa8;" horiz-adv-x="500" 
d="M415 651q0 -31 -20 -51t-50 -20q-29 0 -49.5 21t-20.5 50q0 27 21 48t49 21q29 0 49.5 -20t20.5 -49zM224 651q0 -31 -19.5 -51t-49.5 -20q-29 0 -50 21t-21 50q0 27 21.5 48t49.5 21q29 0 49 -20t20 -49z" />
    <glyph glyph-name="macron" unicode="&#xaf;" horiz-adv-x="500" 
d="M432 596h-380v102h380v-102z" />
    <glyph glyph-name="macron" unicode="&#x2c9;" horiz-adv-x="500" 
d="M432 596h-380v102h380v-102z" />
    <glyph glyph-name="breve" unicode="&#x2d8;" horiz-adv-x="500" 
d="M403 708q-12 -150 -153 -150q-142 0 -154 150h64q6 -68 90 -68q86 0 89 68h64z" />
    <glyph glyph-name="ring" unicode="&#x2da;" horiz-adv-x="500" 
d="M383 683q0 -55 -38.5 -93.5t-94.5 -38.5t-94 38t-38 94q0 55 38.5 94t93.5 39t94 -39t39 -94zM306 683q0 23 -16.5 39.5t-39.5 16.5t-39.5 -16.5t-16.5 -39.5t16.5 -39.5t39.5 -16.5t39.5 16.5t16.5 39.5z" />
    <glyph glyph-name="hungarumlaut" unicode="&#x2dd;" horiz-adv-x="500" 
d="M471 728l-155 -168h-58l92 168h121zM308 728l-117 -168h-54l55 168h116z" />
    <glyph glyph-name="dotaccent" unicode="&#x2d9;" horiz-adv-x="500" 
d="M323 628q0 -31 -20.5 -52t-52.5 -21q-29 0 -50.5 21.5t-21.5 51.5q0 29 22 51t50 22q31 0 52 -21.5t21 -51.5z" />
    <glyph glyph-name="cedilla" unicode="&#xb8;" horiz-adv-x="461" 
d="M417 -135q0 -102 -124 -102q-64 0 -142 22v68q79 -22 132 -22q42 0 42 35q0 31 -58 31q-17 0 -27 -1v104h56v-41h9q112 0 112 -94z" />
    <glyph glyph-name="ogonek" unicode="&#x2db;" horiz-adv-x="500" 
d="M368 -203q-47 -15 -114 -15q-47 0 -83 26q-39 29 -39 74q0 88 131 140l49 -22q-26 0 -46 -13q-21 -16 -21 -41q0 -48 58 -48q30 0 65 13v-114z" />
    <glyph glyph-name="ellipsis" unicode="&#x2026;" horiz-adv-x="1000" 
d="M933 80q0 -42 -29 -70.5t-70 -28.5t-69.5 29t-28.5 70t28 70t70 29q41 0 70 -29t29 -70zM599 80q0 -42 -29 -70.5t-70 -28.5t-69.5 29t-28.5 70t28 70t70 29q41 0 70 -29t29 -70zM266 80q0 -42 -29 -70.5t-70 -28.5t-69.5 29t-28.5 70t28 70t70 29q41 0 70 -29t29 -70z
" />
    <glyph glyph-name="sfthyphen" unicode="&#xad;" horiz-adv-x="456" 
d="M394 166h-332v159h332v-159z" />
    <glyph glyph-name="exclamdown" unicode="&#xa1;" horiz-adv-x="343" 
d="M270 649q0 -41 -29 -70t-70 -29q-42 0 -70 29t-28 70t28.5 70t69.5 29t70 -28.5t29 -70.5zM262 -19h-181v510h181v-510z" />
    <glyph glyph-name="questiondown" unicode="&#xbf;" horiz-adv-x="605" 
d="M407 649q0 -41 -28.5 -70t-70.5 -29q-41 0 -69.5 29t-28.5 70q0 42 28.5 70.5t69.5 28.5t70 -29t29 -70zM540 186q0 -94 -68 -151t-182 -57q-104 0 -167 61t-63 158q0 81 44 133t114 53v104h168v-202h-52q-113 0 -113 -88q0 -33 22.5 -56t54.5 -23q72 0 75 72h167v-4z
" />
    <glyph glyph-name="quoteleft" unicode="&#x2018;" 
d="M299 715l-103 -306h-183l151 306h135z" />
    <glyph glyph-name="quoteright" unicode="&#x2019;" 
d="M299 715l-151 -306h-135l104 306h182z" />
    <glyph glyph-name="quotedblleft" unicode="&#x201c;" horiz-adv-x="565" 
d="M552 715l-104 -306h-182l151 306h135zM299 715l-103 -306h-183l151 306h135z" />
    <glyph glyph-name="quotedblright" unicode="&#x201d;" horiz-adv-x="565" 
d="M552 715l-151 -306h-135l103 306h183zM299 715l-151 -306h-135l104 306h182z" />
    <glyph glyph-name="quotesinglbase" unicode="&#x201a;" 
d="M299 162l-151 -306h-135l104 306h182z" />
    <glyph glyph-name="quotedblbase" unicode="&#x201e;" horiz-adv-x="565" 
d="M552 162l-151 -306h-135l103 306h183zM299 162l-151 -306h-135l104 306h182z" />
    <glyph glyph-name="guilsinglleft" unicode="&#x2039;" 
d="M291 72l-94 -65l-175 238l175 239l94 -68l-129 -171z" />
    <glyph glyph-name="guilsinglright" unicode="&#x203a;" 
d="M291 245l-176 -238l-93 65l128 173l-128 171l93 68z" />
    <glyph glyph-name="guillemotleft" unicode="&#xab;" horiz-adv-x="544" 
d="M522 75l-93 -68l-176 238l176 239l93 -65l-128 -174zM291 75l-94 -68l-175 238l175 239l94 -65l-129 -174z" />
    <glyph glyph-name="guillemotright" unicode="&#xbb;" horiz-adv-x="544" 
d="M522 245l-176 -238l-93 68l128 170l-128 174l93 65zM290 245l-175 -238l-93 68l128 170l-128 174l93 65z" />
    <glyph glyph-name="endash" unicode="&#x2013;" horiz-adv-x="500" 
d="M500 179h-500v133h500v-133z" />
    <glyph glyph-name="emdash" unicode="&#x2014;" horiz-adv-x="1000" 
d="M1000 179h-1000v133h1000v-133z" />
    <glyph glyph-name="bullet" unicode="&#x2022;" horiz-adv-x="590" 
d="M439 372q0 -59 -42.5 -102t-102.5 -43t-102 42.5t-42 102.5t42.5 102t102.5 42q59 0 101.5 -42t42.5 -102z" />
    <glyph glyph-name="periodcentered" unicode="&#xb7;" 
d="M255 352q0 -42 -29 -70.5t-70 -28.5t-69.5 29t-28.5 70t28 69.5t70 28.5q41 0 70 -28.5t29 -69.5z" />
    <glyph glyph-name="periodcentered" unicode="&#x2219;" 
d="M255 352q0 -42 -29 -70.5t-70 -28.5t-69.5 29t-28.5 70t28 69.5t70 28.5q41 0 70 -28.5t29 -69.5z" />
    <glyph glyph-name="dagger" unicode="&#x2020;" horiz-adv-x="595" 
d="M561 315h-184v-517h-159v517h-184v154h184v246h159v-246h184v-154z" />
    <glyph glyph-name="daggerdbl" unicode="&#x2021;" horiz-adv-x="595" 
d="M564 7h-186v-208h-162v208h-185v141h185v218h-185v141h185v208h162v-208h186v-141h-186v-218h186v-141z" />
    <glyph glyph-name="section" unicode="&#xa7;" horiz-adv-x="595" 
d="M562 262q0 -125 -105 -162q74 -36 74 -129q0 -86 -65 -139t-176 -53q-113 0 -174 55.5t-62 157.5h181v-11q0 -73 68 -73q31 0 49.5 18t18.5 48q0 43 -37 55q-7 3 -99 16q-104 15 -152 62q-51 50 -51 144q0 125 106 161q-74 35 -74 129q0 85 64.5 138t176.5 53
q111 0 172 -54t64 -153h-181v10q0 68 -68 68q-31 0 -49.5 -18t-18.5 -48q0 -43 37 -55q7 -2 99 -15q104 -14 153 -62.5t49 -142.5zM384 254q0 39 -25 65t-60 26q-38 0 -62.5 -24.5t-24.5 -62.5q0 -43 26 -69q23 -24 58 -24q37 0 62.5 26t25.5 63z" />
    <glyph glyph-name="paragraph" unicode="&#xb6;" horiz-adv-x="500" 
d="M487 662h-52v-662h-85v662h-74v-662h-85v383q-81 3 -129 49.5t-48 119.5q0 76 51.5 123t138.5 47h283v-60z" />
    <glyph glyph-name="brokenbar" unicode="&#xa6;" horiz-adv-x="500" 
d="M309 329h-117v370h117v-370zM309 -171h-117v370h117v-370z" />
    <glyph glyph-name="copyright" unicode="&#xa9;" horiz-adv-x="833" 
d="M781 360q0 -153 -104 -256q-111 -109 -261 -109q-149 0 -256.5 107.5t-107.5 257.5q0 149 108 259q104 106 256 106q153 0 259 -106t106 -259zM715 360q0 125 -87 212t-211 87q-125 0 -210 -87q-89 -91 -89 -212t88.5 -209.5t210.5 -88.5t213 89q85 84 85 209zM600 298
q-3 -70 -52.5 -112.5t-128.5 -42.5q-93 0 -147 57.5t-54 156.5q0 101 54.5 160.5t145.5 59.5q77 0 125.5 -39t52.5 -103h-104q-6 69 -76 69q-40 0 -63 -37t-23 -106q0 -139 91 -139q68 0 74 76h105z" />
    <glyph glyph-name="registered" unicode="&#xae;" horiz-adv-x="833" 
d="M781 360q0 -156 -108 -259q-111 -106 -257 -106q-151 0 -259 111q-105 108 -105 254q0 153 111 262q104 103 253 103q155 0 263 -110q102 -104 102 -255zM715 360q0 124 -84 209q-88 90 -214 90q-123 0 -208 -84q-90 -89 -90 -215q0 -120 85 -207q89 -91 212 -91
q122 0 210.5 85.5t88.5 212.5zM600 168h-121l-75 159h-32v-159h-110v400h161q173 0 173 -116q0 -83 -85 -108zM483 444q0 55 -78 55h-33v-107h39q72 0 72 52z" />
    <glyph glyph-name="trademark" unicode="&#x2122;" horiz-adv-x="833" 
d="M717 446h-76v190l-71 -190h-32l-73 190v-190h-76v269h109l55 -148l56 148h108v-269zM337 653h-80v-207h-85v207h-80v62h245v-62z" />
    <glyph glyph-name="currency" unicode="&#xa4;" horiz-adv-x="625" 
d="M598 198l-6 -171q-83 -46 -171 -46q-134 0 -223.5 75t-112.5 206h-85l13 60h64q-1 11 -1 32q0 3 2 33h-78l13 61h72q27 129 116.5 201.5t221.5 72.5q94 0 171 -51v-169q-70 70 -157 70q-126 0 -164 -124h243l-21 -61h-233q-3 -24 -3 -38q0 -13 1 -27h214l-22 -60h-183
q14 -60 59.5 -95t108.5 -35q75 0 161 66z" />
    <glyph glyph-name="Euro" unicode="&#x20ac;" horiz-adv-x="625" 
d="M598 198l-6 -171q-83 -46 -171 -46q-134 0 -223.5 75t-112.5 206h-85l13 60h64q-1 11 -1 32q0 3 2 33h-78l13 61h72q27 129 116.5 201.5t221.5 72.5q94 0 171 -51v-169q-70 70 -157 70q-126 0 -164 -124h243l-21 -61h-233q-3 -24 -3 -38q0 -13 1 -27h214l-22 -60h-183
q14 -60 59.5 -95t108.5 -35q75 0 161 66z" />
    <glyph glyph-name="cent" unicode="&#xa2;" horiz-adv-x="625" 
d="M477 116q-48 -25 -103 -31v-99h-56v99q-223 40 -223 263q0 106 60 176.5t163 86.5v83h56v-82q58 -6 103 -31v-148q-50 44 -98 44q-51 0 -82 -34t-31 -94q0 -57 31.5 -91t85.5 -34q52 0 94 43v-151z" />
    <glyph glyph-name="sterling" unicode="&#xa3;" horiz-adv-x="625" 
d="M595 102q-51 -121 -184 -121q-45 0 -113 25t-91 25q-41 0 -79 -44l-88 108q50 72 115 79q29 35 29 79q0 21 -8 51h-114v69h79q-53 75 -53 151q0 82 63 138q69 60 183 60q115 0 178 -59.5t65 -170.5h-168q-2 92 -78 92q-32 0 -51.5 -20t-19.5 -51q0 -22 18 -61l37 -79h163
v-69h-154q-1 -91 -84 -124l2 -10q26 3 40 3q23 0 63.5 -13.5t62.5 -13.5q44 0 70 49z" />
    <glyph glyph-name="florin" unicode="&#x192;" horiz-adv-x="625" 
d="M550 709l-22 -127q-27 12 -42 12q-45 0 -56 -69l-11 -67h88l-20 -121h-89l-42 -253q-26 -155 -64 -208q-48 -66 -161 -66q-38 0 -83 10l28 123q16 -4 31 -4q44 0 61 45q9 25 32 159l33 194h-91l20 121h91l13 74q17 99 54 141q44 50 140 50q43 0 90 -14z" />
    <glyph glyph-name="yen" unicode="&#xa5;" horiz-adv-x="652" 
d="M666 709l-125 -193h106v-99h-172l-46 -73h218v-99h-236v-245h-169v245h-237v99h219l-48 73h-171v99h106l-126 193h190l122 -202q14 -23 30 -71q13 43 29 70l123 203h187z" />
    <glyph glyph-name="ordfeminine" unicode="&#xaa;" horiz-adv-x="495" 
d="M445 371h-120v55q-50 -69 -133 -69q-73 0 -118 50t-45 135q0 84 46 134t125 50q82 0 124 -68v57h121v-344zM330 543q0 40 -23 63.5t-63 23.5t-63 -23.5t-23 -63.5t23 -63.5t63 -23.5t63 23.5t23 63.5z" />
    <glyph glyph-name="ordmasculine" unicode="&#xba;" horiz-adv-x="467" 
d="M440 541q0 -77 -60 -130.5t-147 -53.5t-146.5 54t-59.5 130q0 78 59.5 131.5t146.5 53.5t147 -53.5t60 -131.5zM311 541q0 39 -21 61.5t-57 22.5q-77 0 -77 -84q0 -82 77 -82q36 0 57 22t21 60z" />
    <glyph glyph-name="onesuperior" unicode="&#xb9;" horiz-adv-x="413" 
d="M275 281h-117v328h-101l55 97h163v-425z" />
    <glyph glyph-name="twosuperior" unicode="&#xb2;" horiz-adv-x="413" 
d="M378 579q0 -59 -64 -122l-86 -85h145v-91h-360l211 228q38 41 38 69q0 51 -57 51q-62 0 -62 -68v-6h-114v3q0 73 47.5 115t127.5 42q81 0 127.5 -38t46.5 -98z" />
    <glyph glyph-name="threesuperior" unicode="&#xb3;" horiz-adv-x="413" 
d="M382 410q0 -62 -49 -101t-127 -39q-82 0 -130.5 39.5t-48.5 107.5v6h120v-7q0 -57 57 -57q61 0 61 54q0 58 -70 58q-9 0 -14 -1v69h6q68 0 68 50q0 20 -15 32.5t-37 12.5q-53 0 -53 -46h-114q2 60 47 93t126 33q73 0 114 -30t41 -80q0 -68 -75 -88q93 -14 93 -106z" />
    <glyph glyph-name="fraction" unicode="&#x2044;" horiz-adv-x="167" 
d="M333 722l-410 -741h-90l408 741h92z" />
    <glyph glyph-name="fraction" unicode="&#x2215;" horiz-adv-x="167" 
d="M333 722l-410 -741h-90l408 741h92z" />
    <glyph glyph-name="onequarter" unicode="&#xbc;" horiz-adv-x="955" 
d="M935 90h-50v-90h-102v90h-205v79l168 229h139v-229h50v-79zM727 722l-410 -741h-90l408 741h92zM263 309h-112v306h-96l53 90h155v-396zM786 330q-10 -21 -31 -49l-82 -112h110v116q0 30 3 45z" />
    <glyph glyph-name="onehalf" unicode="&#xbd;" horiz-adv-x="955" 
d="M921 278q0 -53 -61 -113l-81 -80h138v-85h-344l202 213q36 38 36 64q0 48 -54 48q-60 0 -60 -64v-5h-108v3q0 67 45 106.5t122 39.5q76 0 122 -36q43 -35 43 -91zM727 722l-410 -741h-90l408 741h92zM263 309h-112v306h-96l53 90h155v-396z" />
    <glyph glyph-name="threequarters" unicode="&#xbe;" horiz-adv-x="955" 
d="M935 90h-50v-90h-102v90h-205v79l168 229h139v-229h50v-79zM727 722l-410 -741h-90l408 741h92zM365 429q0 -58 -47 -94.5t-121 -36.5q-79 0 -125 37.5t-46 100.5v6h114v-7q0 -53 55 -53q58 0 58 50q0 54 -67 54q-8 0 -13 -1v65h6q64 0 64 47q0 41 -50 41q-49 0 -49 -43
h-109q2 56 44.5 87t119.5 31q70 0 109 -28t39 -75q0 -63 -71 -82q89 -12 89 -99zM786 330q-10 -21 -31 -49l-82 -112h110v116q0 30 3 45z" />
    <glyph glyph-name="perthousand" unicode="&#x2030;" horiz-adv-x="1319" 
d="M1303 179q0 -90 -50 -144t-134 -54t-133.5 54t-49.5 144t49.5 143.5t133.5 53.5t134 -53.5t50 -143.5zM888 179q0 -90 -49.5 -144t-133.5 -54t-134 54t-50 144t50 143.5t134 53.5t133.5 -53.5t49.5 -143.5zM713 722l-432 -741h-89l429 741h92zM392 525q0 -90 -50 -143.5
t-134 -53.5t-134 53.5t-50 143.5t50 143.5t134 53.5t134 -53.5t50 -143.5zM1181 179q0 122 -62 122t-62 -122q0 -123 62 -123t62 123zM767 179q0 122 -62 122t-62 -122q0 -123 62 -123t62 123zM270 525q0 122 -62 122t-62 -122t62 -122t62 122z" />
    <glyph glyph-name="minus" unicode="&#x2212;" horiz-adv-x="833" 
d="M709 241h-585v115h585v-115z" />
    <glyph glyph-name="plusminus" unicode="&#xb1;" horiz-adv-x="833" 
d="M709 337h-234v-156h-116v156h-235v113h235v156h116v-156h234v-113zM709 -9h-585v113h585v-113z" />
    <glyph glyph-name="multiply" unicode="&#xd7;" horiz-adv-x="833" 
d="M719 83l-79 -79l-215 215l-215 -215l-79 79l215 215l-215 216l79 79l215 -215l215 215l79 -79l-215 -216z" />
    <glyph glyph-name="divide" unicode="&#xf7;" horiz-adv-x="833" 
d="M497 496q0 -33 -23.5 -56.5t-57.5 -23.5t-57 23.5t-23 56.5q0 34 24 57.5t57 23.5t56.5 -23.5t23.5 -57.5zM709 242h-585v113h585v-113zM497 100q0 -33 -23 -56.5t-57 -23.5q-33 0 -57 23.5t-24 56.5q0 34 24 57.5t57 23.5t56.5 -23.5t23.5 -57.5z" />
    <glyph glyph-name="logicalnot" unicode="&#xac;" horiz-adv-x="833" 
d="M709 178h-112v134h-473v111h585v-245z" />
    <glyph glyph-name="mu" unicode="&#xb5;" horiz-adv-x="642" 
d="M615 532l-85 -532h-157l9 61q-37 -69 -102 -69q-60 0 -90 59l-40 -260h-172l116 741h175l-39 -258q-6 -40 -6 -70q0 -83 70 -83q82 0 104 141l43 270h174z" />
    <glyph glyph-name="mu" unicode="&#x3bc;" horiz-adv-x="642" 
d="M615 532l-85 -532h-157l9 61q-37 -69 -102 -69q-60 0 -90 59l-40 -260h-172l116 741h175l-39 -258q-6 -40 -6 -70q0 -83 70 -83q82 0 104 141l43 270h174z" />
    <glyph glyph-name="degree" unicode="&#xb0;" horiz-adv-x="329" 
d="M317 564q0 -62 -44.5 -107t-108.5 -45q-63 0 -107 44t-44 108t44.5 108t107.5 44t107.5 -44.5t44.5 -107.5zM245 565q0 33 -23 56.5t-57 23.5q-33 0 -57 -23.5t-24 -56.5q0 -34 23.5 -57.5t57.5 -23.5q33 0 56.5 24t23.5 57z" />
    </font>
</defs>
</svg>
